<svg width="785" height="589" viewBox="0 0 785 589" fill="none" xmlns="http://www.w3.org/2000/svg">
<g clip-path="url(#clip0_8_15)">
<path d="M242.175 172.118C296.347 121.258 359.815 108.128 376.585 105.449C365.283 74.9198 347.827 29.5363 343.48 22.8209C340.668 22.4672 337.836 22.3049 335.003 22.3352C322.681 22.3352 296.297 24.8975 258.092 42.0963C202.917 66.9317 188.253 94.8651 185.344 101.698L242.175 172.118Z" fill="white"/>
<path d="M335.003 25.6847C322.948 25.6847 297.099 28.2134 259.513 45.1443C209.671 67.6183 193.57 92.7384 189.29 101.229L242.492 167.228C268.808 143.508 299.534 125.218 332.913 113.404C345.636 108.817 358.709 105.272 372.004 102.803C359.514 69.1925 345.938 34.5939 341.373 25.9526C339.885 25.8187 337.745 25.6847 334.97 25.6847H335.003ZM334.97 18.986C338.367 18.9146 341.763 19.1501 345.118 19.6894C349.031 20.9956 381.133 108.179 381.133 108.179C381.133 108.179 304.941 115.966 241.823 177.041L181.632 102.317C181.632 102.317 191.664 68.3887 256.871 39.0485C295.043 21.8497 321.644 18.9525 335.103 18.9525L334.97 18.986Z" fill="#A0C6F4"/>
<path d="M369.981 114.961C369.981 114.961 295.059 122.531 248.913 164.984" stroke="white" stroke-linecap="round" stroke-linejoin="round"/>
<path d="M305.309 111.294L277.353 56.8671L248.628 113.622L305.309 111.294Z" fill="#A0C6F4"/>
<path d="M299.875 110.523L271.919 56.0967L243.195 112.851L299.875 110.523Z" stroke="white" stroke-linecap="round" stroke-linejoin="round"/>
<path d="M326.091 15.67C326.091 15.67 242.058 23.3065 189.892 85.4032" stroke="white" stroke-linecap="round" stroke-linejoin="round"/>
<path d="M283.172 256.856C287.786 253.506 290.812 251.179 290.812 251.179C289.542 249.504 269.328 227.917 257.624 210.534C257.624 210.534 281.299 258.246 283.172 256.856Z" fill="white"/>
<path d="M569.565 99.6547C567.308 103.423 566.322 101.915 559.818 101.329C553.314 100.743 544.051 105.583 540.807 113.605C537.564 121.626 538.55 122.866 540.306 123.87C542.061 124.875 554.551 126.382 555.053 128.894" stroke="white" stroke-linecap="round" stroke-linejoin="round"/>
<path d="M401.08 507.369L406.915 497.505L427.581 532.02L422.163 536.207L401.08 507.369Z" fill="#F9865F"/>
<path d="M538.333 421.878C538.333 421.878 549.05 404.444 544.452 395.887L510.277 399.554L538.333 421.878Z" fill="#F9865F"/>
<path d="M538.333 421.878L536.293 426.6L542.596 451.251C542.995 452.774 542.956 454.378 542.486 455.879C542.016 457.381 541.133 458.72 539.938 459.742L508.688 413.471C507.256 411.341 506.629 408.77 506.92 406.219C507.211 403.668 508.401 401.305 510.277 399.554L517.266 393.057L538.333 421.878Z" fill="white"/>
<path d="M555.052 128.961C545.271 128.727 532.865 128.107 535.356 120.588C537.848 113.069 547.06 94.5136 568.211 100.09C568.211 100.09 575.651 106.303 566.355 117.49C557.059 128.677 555.052 128.961 555.052 128.961Z" fill="#2A1E33"/>
<path d="M505.528 399.889C505.528 399.889 522.248 350.487 508.103 328.8C496.399 310.898 458.312 340.003 453.095 343.872L425.825 294.603C425.825 294.603 432.112 285.761 447.561 277.103C463.01 268.445 526.863 242.521 556.875 289.947C567.96 307.465 568.127 382.674 546.843 411.495L505.528 399.889Z" fill="#1EA2CB"/>
<path d="M505.528 399.889C505.528 399.889 522.248 350.487 508.103 328.8C496.399 310.897 458.312 340.003 453.095 343.872" stroke="white" stroke-linecap="round" stroke-linejoin="round"/>
<path d="M425.825 294.603C438.231 307.682 474.998 371.386 483.274 401.782C494.326 442.51 490.163 476.288 429.37 542.454L399.993 499.582C399.993 499.582 420.659 468.165 416.713 438.541C411.128 395.686 380.682 354.137 365.283 327.778L425.825 294.603Z" fill="#1EA2CB"/>
<path d="M421.16 300.129L372.288 338.563L357.675 316.323L421.16 300.129Z" fill="#8C3C6C"/>
<path d="M140.401 259.736C132.777 261.377 126.97 264.286 122.979 268.461C118.983 272.648 120.789 274.825 122.243 276.098C123.698 277.37 129.333 275.913 134.232 271.559C139.13 267.205 140.401 259.736 140.401 259.736Z" fill="#FF8A66"/>
<path d="M290.812 251.179C289.542 249.504 269.328 227.917 257.624 210.534C257.624 210.534 222.261 250.224 218.416 251.514C216.995 251.982 208.384 251.865 197.549 251.765C179.358 251.564 155.165 251.38 149.814 254.076C141.287 258.329 136.171 260.473 134.048 266.452C131.924 272.43 131.071 276.332 136.171 276.684C142.14 277.119 145.969 269.432 145.969 269.432C151.591 272.457 157.445 275.027 163.474 277.119C163.474 277.119 208.802 294.737 239.098 286.213C247.341 283.885 290.812 251.179 290.812 251.179Z" fill="#C77053"/>
<path d="M565.569 92.638C569.448 94.1285 571.822 95.9036 569.565 99.6549C567.308 103.406 566.322 101.916 559.818 101.33C553.314 100.743 544.051 105.583 540.807 113.605C537.564 121.627 538.55 122.866 540.306 123.871C542.061 124.875 554.551 126.383 555.052 128.895C555.554 131.407 550.036 138.792 538.483 138.306L535.741 137.804C535.741 137.804 511.548 161.467 508.036 164.967C504.525 168.467 478.81 185.934 464.565 189.484C453.797 192.18 431.961 188.714 418.853 186.135C412.483 184.879 408.152 183.857 408.152 183.857C408.152 183.857 418 166.089 420.007 138.792C420.007 138.792 443.548 142.577 459.198 146.026C459.198 146.026 495.714 125.629 513.47 116.603C513.47 116.603 528.986 97.5783 536.243 95.0663C543.499 92.5543 560.319 90.6452 565.569 92.638Z" fill="#C77053"/>
<path d="M418.92 186.218C412.55 184.962 408.219 183.941 408.219 183.941C408.219 183.941 420.14 168.869 422.13 141.605C422.13 141.605 427.514 147.416 425.842 162.873C423.735 182.4 418.92 186.218 418.92 186.218Z" fill="white"/>
<path d="M422.632 138.541C422.632 138.541 422.297 171.917 413.369 185.833L410.175 184.544C410.175 184.544 452.226 233.829 465.836 266.033C468.059 271.308 378.508 328.599 365.283 327.795C365.283 327.795 321.644 261.093 306.763 241.315L290.712 253.775C290.712 253.775 259.262 221.855 257.574 210.535C257.574 210.535 287.954 173.508 312.749 162.656C337.545 151.804 359.932 133.249 386.634 133.835C409.741 134.187 422.632 138.541 422.632 138.541Z" fill="#071417"/>
<path d="M290.779 253.774L306.813 241.315L304.255 234.348L290.779 253.774Z" fill="white"/>
<path d="M266.368 121.827C269.177 130.586 277.286 155.89 286.332 159.005C295.377 162.12 304.723 158.218 304.723 158.218L314.354 163.141C315.424 166.373 323.032 169.153 332.846 169.539C340.119 169.823 344.55 160.462 342.393 153.696C341.407 150.581 337.712 135.275 337.712 135.275C337.712 135.275 329.92 106.538 322.664 100.609C315.407 94.6809 308.753 88.786 289.609 96.5398C260.449 108.396 266.368 121.827 266.368 121.827Z" fill="#C77053"/>
<path d="M323.339 118.598C323.831 122.671 327.084 131.12 330.04 130.028C332.995 128.937 334.405 125.424 333.308 118.205C332.21 110.985 332.518 94.9491 327.334 91.4163C322.15 87.8834 319.293 90.9054 319.293 90.9054C319.293 90.9054 323.162 79.6445 316.186 77.1706C316.186 77.1706 313.884 75.772 313.889 83.8098C313.208 81.5161 311.759 79.5049 309.776 78.096C307.792 76.687 305.386 75.961 302.94 76.0331C293.938 75.8933 289.28 87.7093 289.28 87.7093C289.146 86.6697 288.64 85.7069 287.851 84.9907C287.063 84.2745 286.042 83.8509 284.967 83.7944C280.893 83.2942 273.979 88.401 274.656 95.0667C274.656 95.0667 264.625 90.6128 258.095 98.0489C251.564 105.484 251.126 114.408 264.05 119.531C277.564 124.889 279.383 109.026 281.756 107.223C284.129 105.42 286.692 103.328 294.16 107.142C301.629 110.955 310.808 103.555 310.808 103.555C310.808 103.555 310.832 113.852 312.045 114.992C313.258 116.131 315.681 117.696 315.618 112.86C315.555 108.026 314.672 108.393 315.322 107.194C315.971 105.995 318.659 102.25 322.859 106.352C327.586 110.869 323.339 118.598 323.339 118.598Z" fill="#251E14"/>
<path d="M321.577 125.461C325.673 122.112 328.516 115.949 324.921 109.887C321.326 103.825 315.424 103.004 313.635 105.298C311.846 107.593 311.144 111.461 312.833 116.05" stroke="#2A1E33" stroke-linecap="round" stroke-linejoin="round"/>
<path d="M422.147 536.207L420.107 540.913L426.41 565.564C426.809 567.086 426.77 568.691 426.3 570.192C425.83 571.694 424.947 573.033 423.752 574.055L392.536 527.783C391.103 525.654 390.476 523.083 390.768 520.532C391.059 517.981 392.249 515.618 394.124 513.867L401.113 507.369L422.147 536.207Z" fill="white"/>
<path d="M314.839 86.7597C314.839 86.7597 317.247 78.9724 324.419 76.9126" stroke="#2A1E33" stroke-linecap="round" stroke-linejoin="round"/>
<path d="M466.906 263.672L380.33 142.543" stroke="white" stroke-linecap="round" stroke-linejoin="round"/>
<path d="M344.634 151.017C347.76 155.086 349.181 172.57 334.819 173.692C326.628 174.508 318.39 172.696 311.294 168.517" stroke="white" stroke-linecap="round" stroke-linejoin="round"/>
<path d="M536.326 95.1499C536.326 95.1499 526.428 108.263 524.873 112.935" stroke="white" stroke-linecap="round" stroke-linejoin="round"/>
<path d="M165.748 271.04C165.748 271.04 159.061 276.483 145.969 269.365C141.204 266.803 144.598 260.758 150.65 262.265C156.703 263.772 163.859 261.511 163.859 261.511" stroke="white" stroke-linecap="round" stroke-linejoin="round"/>
<path d="M138.127 260.49C138.127 260.49 131.79 267.909 131.958 272.313" stroke="white" stroke-linecap="round" stroke-linejoin="round"/>
<path d="M231.491 259.686C231.491 259.686 225.756 252.033 218.416 251.514" stroke="white" stroke-linecap="round" stroke-linejoin="round"/>
<path d="M473.343 158.469C473.343 158.469 469.999 148.019 459.265 146.11" stroke="white" stroke-linecap="round" stroke-linejoin="round"/>
<path d="M444.267 317.027L457.074 341.494C457.074 341.494 499.275 413.019 484.946 459.239" stroke="white" stroke-linecap="round" stroke-linejoin="round"/>
<path d="M406.882 399.085L365.366 327.795C365.366 327.795 310.943 248.734 305.376 237.664L286.164 202.077" stroke="white" stroke-linecap="round" stroke-linejoin="round"/>
<path d="M461.087 271.275C461.087 271.275 387.236 325.199 365.35 327.795" stroke="white" stroke-linecap="round" stroke-linejoin="round"/>
<path d="M422.632 138.541C422.632 138.541 422.632 172.386 413.586 186.252" stroke="white" stroke-linecap="round" stroke-linejoin="round"/>
<path d="M259.998 205.175C262.322 219.109 293.137 248.399 293.137 248.399" stroke="white" stroke-linecap="round" stroke-linejoin="round"/>
<path d="M489.996 378.872C487.576 378.872 485.615 376.908 485.615 374.484C485.615 372.061 487.576 370.097 489.996 370.097C492.415 370.097 494.376 372.061 494.376 374.484C494.376 376.908 492.415 378.872 489.996 378.872Z" fill="white"/>
<path d="M78.621 468.852L81.046 452.055L66.75 461.584L74.224 463.208L78.621 468.852Z" stroke="white" stroke-linecap="round" stroke-linejoin="round"/>
<path d="M553.046 182.099C580.149 158.134 624.941 217.87 461.087 408.011C366.537 517.702 292.217 527.532 282.185 489.367C264.128 420.906 329.335 403.607 305.058 430.418C269.779 469.405 169.444 477.644 94.656 441.27C20.871 405.365 66.232 349.616 70.813 346.35" stroke="white" stroke-linecap="round" stroke-linejoin="round"/>
<path d="M93.4181 445.306C90.9991 445.306 89.0381 443.342 89.0381 440.919C89.0381 438.495 90.9991 436.531 93.4181 436.531C95.8381 436.531 97.7991 438.495 97.7991 440.919C97.7991 443.342 95.8381 445.306 93.4181 445.306Z" fill="white"/>
<path d="M157.221 476.773L27.2579 403.389" stroke="white" stroke-linecap="round" stroke-linejoin="round"/>
<path d="M550.337 190.037C547.918 190.037 545.957 188.072 545.957 185.649C545.957 183.226 547.918 181.261 550.337 181.261C552.757 181.261 554.718 183.226 554.718 185.649C554.718 188.072 552.757 190.037 550.337 190.037Z" fill="white"/>
<path d="M438.532 104.394C433.333 104.394 429.119 100.173 429.119 94.9656C429.119 89.7585 433.333 85.5372 438.532 85.5372C443.731 85.5372 447.945 89.7585 447.945 94.9656C447.945 100.173 443.731 104.394 438.532 104.394Z" fill="#D2298F"/>
<path d="M609.208 23.1059C610.029 23.1026 610.832 23.3433 611.516 23.7977C612.2 24.252 612.734 24.8995 613.051 25.6581C613.367 26.4166 613.452 27.2522 613.294 28.059C613.135 28.8657 612.742 29.6073 612.163 30.1898C611.583 30.7723 610.845 31.1695 610.04 31.3312C609.235 31.4928 608.4 31.4115 607.642 31.0977C606.883 30.7838 606.234 30.2515 605.778 29.5682C605.322 28.8848 605.078 28.0812 605.078 27.2591C605.078 26.1605 605.513 25.1066 606.287 24.3282C607.061 23.5498 608.111 23.1103 609.208 23.1059Z" fill="#A0C6F4"/>
<path d="M55.13 537.53C52.849 537.53 51 535.678 51 533.394C51 531.109 52.849 529.257 55.13 529.257C57.411 529.257 59.26 531.109 59.26 533.394C59.26 535.678 57.411 537.53 55.13 537.53Z" fill="#FAD8B0"/>
<path d="M129.015 346.333L173.506 325.45C174.291 325.062 174.949 324.459 175.406 323.712C175.862 322.964 176.098 322.103 176.085 321.227C176.073 320.35 175.813 319.496 175.336 318.761C174.859 318.027 174.184 317.443 173.389 317.077L90.6929 280.636C90.1139 280.379 89.4869 280.247 88.8539 280.247C88.2209 280.247 87.5939 280.379 87.0149 280.636L30.1669 305.053L129.015 346.333Z" fill="#6A676C"/>
<path d="M131.707 277.672C131.607 296.093 128.965 346.334 128.965 346.334L30.117 304.986L32.341 235.069C32.37 234.077 32.644 233.108 33.137 232.248C33.631 231.388 34.329 230.664 35.17 230.14C36.011 229.616 36.969 229.309 37.957 229.245C38.945 229.182 39.934 229.364 40.835 229.777L125.922 268.629C127.658 269.412 129.129 270.684 130.156 272.289C131.183 273.895 131.722 275.765 131.707 277.672Z" fill="#A7A4A4"/>
<path d="M129.015 346.333L30.167 304.986L32.391 235.068C32.391 235.068 33.043 227.432 40.885 229.776" stroke="white" stroke-linecap="round" stroke-linejoin="round"/>
<path d="M81.1799 296.076L74.5079 280.284" stroke="white" stroke-linecap="round" stroke-linejoin="round"/>
<path d="M74.5081 296.076L67.837 280.284" stroke="white" stroke-linecap="round" stroke-linejoin="round"/>
<path d="M591.401 468.4C589.121 468.4 587.272 466.548 587.272 464.263C587.272 461.979 589.121 460.127 591.401 460.127C593.682 460.127 595.531 461.979 595.531 464.263C595.531 466.548 593.682 468.4 591.401 468.4Z" fill="#FF6D66"/>
<path d="M242.743 490.556C239.567 490.556 236.992 487.976 236.992 484.795C236.992 481.613 239.567 479.034 242.743 479.034C245.92 479.034 248.495 481.613 248.495 484.795C248.495 487.976 245.92 490.556 242.743 490.556Z" fill="#DD3399"/>
<path d="M548.532 525.707C532.16 533.243 514.333 537.073 496.316 536.927C495.981 536.93 495.651 537.003 495.347 537.142C495.043 537.281 494.771 537.483 494.55 537.734C494.329 537.985 494.164 538.281 494.065 538.6C493.965 538.92 493.935 539.258 493.975 539.59L497.586 568.26C497.658 568.758 497.887 569.219 498.239 569.578C498.59 569.936 499.047 570.173 499.543 570.253C506.866 571.643 536.326 575.696 558.43 556.856C558.766 556.567 559.014 556.189 559.144 555.765C559.274 555.341 559.282 554.889 559.165 554.461L551.876 527.114C551.775 526.782 551.602 526.477 551.37 526.219C551.138 525.962 550.852 525.759 550.533 525.625C550.214 525.49 549.869 525.428 549.523 525.442C549.177 525.457 548.839 525.547 548.532 525.707Z" fill="#EBFFDC"/>
<path d="M545.94 534.08C545.94 534.08 533.2 552.016 528.652 554.595C524.104 557.174 499.559 542.504 499.559 542.504" stroke="white" stroke-linecap="round" stroke-linejoin="round"/>
<path d="M516.63 552.117L503.238 565.899" stroke="white" stroke-linecap="round" stroke-linejoin="round"/>
<path d="M535.239 549.454L550.906 553.724" stroke="white" stroke-linecap="round" stroke-linejoin="round"/>
<path d="M138.495 186.402H153.459V201.391H138.495V186.402Z" fill="#FFE1C0"/>
<path d="M151.436 388.518L146.989 396.239L142.541 403.959H151.436H160.314L155.884 396.239L151.436 388.518Z" fill="#A0C6F4"/>
<path d="M510.996 46.7521L509.825 11.718C509.959 8.36868 508.622 7.41411 506.615 6.96195C497.118 4.86861 468.16 -1.57885 436.843 7.71556C432.781 8.92132 432.914 11.0649 432.981 13.0075L434.101 46.4004C434.183 47.0244 434.394 47.6244 434.721 48.1617C435.049 48.6989 435.485 49.1616 436.001 49.5197C436.518 49.8779 437.104 50.1236 437.721 50.2411C438.339 50.3586 438.974 50.3452 439.585 50.2019C450.968 48.8374 462.433 48.2778 473.894 48.5272C484.918 48.4801 495.926 49.3709 506.799 51.1899C509.909 51.776 511.079 49.4985 510.996 46.7521Z" stroke="white" stroke-linecap="round" stroke-linejoin="round"/>
<path d="M500.429 41.728L482.137 20.2922L461.906 40.3045C468.895 37.9432 500.429 41.728 500.429 41.728Z" stroke="white" stroke-linecap="round" stroke-linejoin="round"/>
<path d="M470.952 30.1393L456.171 18.2827L443.715 27.1919L443.247 41.1084L461.923 40.2041" stroke="white" stroke-linecap="round" stroke-linejoin="round"/>
<path d="M492.528 18.6138C492.358 16.9298 493.822 15.4027 495.797 15.2028C497.772 15.0028 499.511 16.2058 499.681 17.8898C499.851 19.5738 498.387 21.101 496.412 21.3009C494.437 21.5009 492.698 20.2978 492.528 18.6138Z" stroke="white" stroke-linecap="round" stroke-linejoin="round"/>
<path d="M157.539 501.776L145.283 524.451C143.996 526.477 144.447 527.633 145.568 528.671C150.818 533.544 166.818 548.382 190.226 554.176C193.252 554.93 193.971 553.506 194.64 552.25L206.344 530.631C206.521 530.202 206.607 529.742 206.597 529.279C206.588 528.816 206.482 528.359 206.287 527.939C206.092 527.519 205.812 527.144 205.465 526.837C205.118 526.531 204.712 526.3 204.271 526.159C196.532 522.794 189.044 518.877 181.866 514.436C174.796 510.402 168.083 505.769 161.803 500.587C160.131 498.912 158.459 500.001 157.539 501.776Z" stroke="white" stroke-linecap="round" stroke-linejoin="round"/>
<path d="M162.354 508.96L166.016 529.375L186.28 524.2C181.014 523.061 162.354 508.96 162.354 508.96Z" stroke="white" stroke-linecap="round" stroke-linejoin="round"/>
<path d="M176.817 527.248L181.816 540.276L193.018 539.255L198.486 530.58L186.297 524.2" stroke="white" stroke-linecap="round" stroke-linejoin="round"/>
<path d="M155.557 527.599C154.23 526.992 153.571 525.585 154.085 524.458C154.6 523.331 156.092 522.91 157.419 523.517C158.746 524.124 159.405 525.53 158.891 526.658C158.376 527.785 156.884 528.206 155.557 527.599Z" stroke="white" stroke-linecap="round" stroke-linejoin="round"/>
<path d="M217.229 114.626L167.42 152.809C167.161 153.009 166.865 153.155 166.549 153.239C166.233 153.323 165.904 153.343 165.58 153.298C165.256 153.252 164.944 153.143 164.663 152.975C164.382 152.808 164.137 152.586 163.943 152.323L156.419 142.107C156.049 141.598 155.89 140.966 155.974 140.342C156.058 139.718 156.379 139.151 156.87 138.758L205.976 99.3866C206.237 99.1785 206.536 99.0256 206.857 98.9371C207.179 98.8486 207.514 98.8264 207.844 98.8718C208.174 98.9172 208.491 99.0293 208.777 99.2013C209.062 99.3733 209.31 99.6016 209.504 99.8723L217.73 111.26C218.1 111.776 218.254 112.417 218.16 113.045C218.067 113.673 217.733 114.24 217.229 114.626Z" fill="white" stroke="white" stroke-linecap="round" stroke-linejoin="round"/>
<path d="M213.55 112.918L201.479 121.409L194.339 112.885L206.428 102.786L213.55 112.918Z" fill="#F043AB"/>
<path d="M196.931 124.725L184.826 134.337L178.338 126.349L190.527 116.452L196.931 124.725Z" fill="#FAD8B0"/>
<path d="M180.763 138.021L168.674 146.512L162.923 139.11L174.359 129.514L180.763 138.021Z" fill="#A0C6F4"/>
<path d="M117.829 61.2378L106.477 156.694C106.425 157.196 106.273 157.683 106.03 158.126C105.787 158.568 105.458 158.957 105.062 159.27C104.665 159.582 104.211 159.812 103.724 159.945C103.238 160.077 102.729 160.111 102.23 160.043L83.0019 157.397C82.0369 157.268 81.1609 156.767 80.5589 156.001C79.9559 155.235 79.675 154.264 79.775 153.294L89.0879 57.2689C89.1389 56.7616 89.2919 56.27 89.5389 55.8237C89.7849 55.3775 90.1189 54.986 90.5209 54.6728C90.9219 54.3597 91.3829 54.1315 91.8759 54.002C92.3679 53.8725 92.8819 53.8445 93.3849 53.9196L114.636 57.0344C115.612 57.1759 116.494 57.6957 117.091 58.4819C117.688 59.2681 117.954 60.2578 117.829 61.2378Z" fill="white" stroke="white" stroke-linecap="round" stroke-linejoin="round"/>
<path d="M112.028 63.4652L108.433 85.8053L91.4791 84.5493L93.3351 60.4843L112.028 63.4652Z" fill="#EE16C5"/>
<path d="M107.212 94.3459L104.821 117.908L89.1379 116.502L91.312 92.554L107.212 94.3459Z" fill="#8375B7"/>
<path d="M104.52 126.332L100.926 148.672L86.664 147.098L88.386 124.272L104.52 126.332Z" fill="#FAD8B0"/>
<path d="M142.608 81.5684L111.175 174.127C111.047 174.504 110.846 174.852 110.583 175.15C110.319 175.449 109.999 175.692 109.641 175.865C109.283 176.038 108.895 176.137 108.498 176.158C108.101 176.179 107.704 176.121 107.329 175.986L87.633 168.886C86.906 168.62 86.309 168.083 85.967 167.388C85.624 166.692 85.562 165.891 85.794 165.151L115.305 71.6879C115.429 71.2998 115.63 70.9409 115.896 70.6328C116.162 70.3248 116.488 70.0739 116.853 69.8955C117.219 69.717 117.617 69.6147 118.023 69.5947C118.43 69.5746 118.836 69.6372 119.217 69.7788L140.819 77.8004C141.553 78.0655 142.153 78.6102 142.488 79.3158C142.823 80.0214 142.866 80.831 142.608 81.5684Z" fill="white" stroke="white" stroke-linecap="round" stroke-linejoin="round"/>
<path d="M136.238 83.2597L128.079 104.377L111.76 99.6045L118.565 76.4438L136.238 83.2597Z" fill="#A0C6F4"/>
<path d="M125.103 112.466L117.88 135.024L102.832 130.368L109.921 107.392L125.103 112.466Z" fill="#FFFF18"/>
<path d="M115.84 143.196L107.681 164.297L94.0541 159.775L100.474 137.804L115.84 143.196Z" fill="#FAD8B0"/>
<path d="M379.528 198.477H538.282C543.343 198.477 547.445 202.586 547.445 207.654V229.174C547.445 234.242 543.343 238.351 538.282 238.351H379.528C374.468 238.351 370.365 234.242 370.365 229.174V207.654C370.365 202.586 374.468 198.477 379.528 198.477Z" fill="#1CDAFF"/>
<path d="M439.017 210.216H525.559C527.23 210.216 528.585 211.573 528.585 213.247C528.585 214.922 527.23 216.279 525.559 216.279H439.017C437.346 216.279 435.991 214.922 435.991 213.247C435.991 211.573 437.346 210.216 439.017 210.216Z" fill="white"/>
<path d="M527.716 224.149H380.598" stroke="white" stroke-linecap="round" stroke-linejoin="round"/>
<path d="M602.992 123.451L600.489 126.196C599.98 126.753 599.714 127.49 599.748 128.245C599.782 128.999 600.114 129.709 600.67 130.218L604.769 133.968C605.325 134.477 606.061 134.744 606.814 134.71C607.567 134.676 608.276 134.343 608.785 133.786L611.288 131.041L602.992 123.451Z" fill="#91BA83"/>
<path d="M625.535 118.115L613.728 131.061C613.118 131.73 612.082 131.777 611.413 131.166L603.254 123.7C602.585 123.089 602.538 122.051 603.149 121.382L614.955 108.436C615.565 107.767 616.602 107.72 617.27 108.331L625.43 115.797C626.098 116.408 626.145 117.446 625.535 118.115Z" stroke="white" stroke-linecap="round" stroke-linejoin="round"/>
<path d="M637.866 176.941H652.696V190.505H637.866V176.941Z" fill="#E6299B"/>
<path d="M652.696 168.215V176.94H661.558" stroke="white" stroke-linecap="round" stroke-linejoin="round"/>
<path d="M149.229 23.7589H164.06V37.3237H149.229V23.7589Z" fill="#FAD8B0"/>
<path d="M164.06 15.0339V23.759H172.921" stroke="white" stroke-linecap="round" stroke-linejoin="round"/>
<path d="M565.469 107.609C719.291 43.7709 837.601 166.725 547.763 354.991C524.94 369.829 489.929 375.087 489.929 375.087" stroke="white" stroke-linecap="round" stroke-linejoin="round"/>
<path d="M706.902 116.284C704.482 116.284 702.521 114.32 702.521 111.897C702.521 109.474 704.482 107.509 706.902 107.509C709.321 107.509 711.282 109.474 711.282 111.897C711.282 114.32 709.321 116.284 706.902 116.284Z" fill="white"/>
<path d="M734.79 87.7981L729.992 83.176L718.974 89.5063L713.423 106.638L730.36 99.5375L734.79 87.7981Z" stroke="white" stroke-linecap="round" stroke-linejoin="round"/>
<path d="M729.992 83.176L734.79 87.798L737.482 84.5324L732.884 80.1113L729.992 83.176Z" stroke="white" stroke-linecap="round" stroke-linejoin="round"/>
<path d="M713.422 106.638L724.441 94.5303" stroke="white" stroke-linecap="round" stroke-linejoin="round"/>
<path d="M686.805 414.074L674.867 475.768C674.803 476.089 674.676 476.394 674.495 476.665C674.313 476.936 674.079 477.169 673.807 477.349C673.535 477.53 673.23 477.655 672.91 477.717C672.59 477.779 672.26 477.777 671.941 477.711L659.535 475.065C658.913 474.932 658.368 474.562 658.012 474.035C657.657 473.507 657.519 472.862 657.629 472.235L668.229 410.155C668.286 409.827 668.41 409.514 668.592 409.235C668.773 408.956 669.01 408.717 669.286 408.532C669.563 408.348 669.874 408.221 670.201 408.16C670.528 408.1 670.864 408.106 671.188 408.179L684.882 411.227C685.195 411.287 685.493 411.408 685.759 411.584C686.025 411.76 686.254 411.986 686.433 412.251C686.611 412.515 686.736 412.812 686.8 413.125C686.864 413.438 686.865 413.76 686.805 414.074Z" fill="white" stroke="white" stroke-linecap="round" stroke-linejoin="round"/>
<path d="M682.875 415.246L679.465 429.631L668.496 428.007L670.837 412.416L682.875 415.246Z" fill="#E82C9D"/>
<path d="M678.261 435.141L675.586 450.364L665.437 448.706L667.995 433.198L678.261 435.141Z" fill="#FAD8B0"/>
<path d="M674.984 455.84L671.59 470.225L662.377 468.501L664.567 453.73L674.984 455.84Z" fill="#A0C6F4"/>
<path d="M344.533 568.662L294.039 555.131L292.1 560.607L343.179 573.887L344.533 568.662Z" stroke="white" stroke-linecap="round" stroke-linejoin="round"/>
<path d="M351.556 561.595L350.084 566.184" stroke="white" stroke-linecap="round" stroke-linejoin="round"/>
<path d="M352.977 564.592L348.713 563.119" stroke="white" stroke-linecap="round" stroke-linejoin="round"/>
<path d="M353.997 579.129L351.255 587.804" stroke="white" stroke-linecap="round" stroke-linejoin="round"/>
<path d="M356.337 584.622L348.747 582.21" stroke="white" stroke-linecap="round" stroke-linejoin="round"/>
<path d="M365.55 564.827L361.955 576.315" stroke="white" stroke-linecap="round" stroke-linejoin="round"/>
<path d="M369.111 571.978L358.478 568.578" stroke="white" stroke-linecap="round" stroke-linejoin="round"/>
<path d="M712.821 19.1032L744.772 4.65078L743.451 1L711.299 15.8208L712.821 19.1032Z" stroke="white" stroke-width="0.67" stroke-linecap="round" stroke-linejoin="round"/>
<path d="M712.168 25.7684L710.981 22.754" stroke="white" stroke-width="0.67" stroke-linecap="round" stroke-linejoin="round"/>
<path d="M710.162 24.8139L713.005 23.7589" stroke="white" stroke-width="0.67" stroke-linecap="round" stroke-linejoin="round"/>
<path d="M703.474 17.6964L701.217 12.0361" stroke="white" stroke-width="0.67" stroke-linecap="round" stroke-linejoin="round"/>
<path d="M699.93 15.8377L704.879 13.8616" stroke="white" stroke-width="0.67" stroke-linecap="round" stroke-linejoin="round"/>
<path d="M703.541 30.0389L700.532 22.5532" stroke="white" stroke-width="0.67" stroke-linecap="round" stroke-linejoin="round"/>
<path d="M698.659 27.8449L705.614 25.0817" stroke="white" stroke-width="0.67" stroke-linecap="round" stroke-linejoin="round"/>
<path d="M593.357 289.478C615.896 273.234 638.033 247.98 628.319 222.039C628.319 222.039 612.786 211.673 588.191 224.635L563.579 237.664L593.357 289.478Z" fill="url(#paint0_linear_8_15)"/>
<path d="M603.573 397.712C613.722 392.906 656.993 370.331 664.701 331.764C671.389 298.471 645.908 253.54 633.167 233.678C633.987 260.021 607.569 282.328 594.829 291.505C583.988 299.489 572.026 305.821 559.333 310.295L603.573 397.712Z" fill="white"/>
<path d="M635.107 241.516C632.348 259.033 619.006 277.17 596.3 293.548C586.055 301.121 574.798 307.215 562.861 311.651L604.66 394.38C617.434 388.016 655.171 366.48 662.21 331.278C668.045 302.022 648.249 263.22 635.073 241.516H635.107ZM628.285 222.04C628.285 222.04 676.187 286.883 667.125 332.266C658.063 377.65 602.386 400.928 602.386 400.928L555.788 308.821C570.351 303.479 579.814 299.125 593.324 289.378C615.862 273.134 637.999 247.88 628.285 221.939V222.04Z" fill="url(#paint1_linear_8_15)"/>
<path d="M640.909 259.719C639.504 268.154 636.176 276.151 631.182 283.087C626.189 290.024 619.664 295.712 612.117 299.71" stroke="white" stroke-linecap="round" stroke-linejoin="round"/>
<path d="M598.206 309.022L572.207 322.972" stroke="white" stroke-linecap="round" stroke-linejoin="round"/>
<path d="M637.197 296.93C637.197 296.93 628.837 315.536 601.918 327.627" stroke="white" stroke-linecap="round" stroke-linejoin="round"/>
<path d="M658.565 299.711C658.565 299.711 657.628 319.254 644.637 325.769" stroke="white" stroke-linecap="round" stroke-linejoin="round"/>
<path d="M628.837 231.82C628.837 231.82 631.245 256.94 593.358 289.479" stroke="white" stroke-linecap="round" stroke-linejoin="round"/>
<path d="M614.909 236.475C614.909 236.475 602.838 235.537 585.198 248.566" stroke="white" stroke-linecap="round" stroke-linejoin="round"/>
<path d="M671.757 316.558C672.526 329.001 670.971 374.099 605.764 402.87" stroke="white" stroke-linecap="round" stroke-linejoin="round"/>
<path d="M255.316 291.471L282.971 346.987C282.971 346.987 264.211 353.903 278.875 375.456C278.875 375.456 244.198 389.858 221.509 352.463C198.82 315.067 255.316 291.471 255.316 291.471Z" fill="url(#paint2_linear_8_15)"/>
<path d="M318.618 461.148C332.612 461.148 347.376 455.421 362.541 444.117L310.809 358.24L280.028 377.649L279.828 377.733C274.448 379.711 268.755 380.698 263.024 380.647C253.303 380.707 243.809 377.701 235.888 372.056L273.708 436.949C273.792 437.067 290.077 461.199 318.618 461.199V461.148Z" fill="white"/>
<path d="M309.973 361.757L281.55 379.693L281.182 379.927L280.797 380.078C275.11 382.184 269.088 383.239 263.024 383.193C256.057 383.219 249.162 381.77 242.793 378.939L275.798 435.493C276.868 437.067 292.184 458.637 318.601 458.637C331.492 458.637 345.135 453.529 359.213 443.447L309.973 361.757ZM221.509 352.446C234.333 373.58 250.969 378.169 263.024 378.169C268.428 378.214 273.796 377.289 278.875 375.439L311.629 354.79L365.784 444.754C347.693 458.72 331.86 463.744 318.601 463.744C288.321 463.744 271.535 438.256 271.535 438.256L221.509 352.53V352.446Z" fill="url(#paint3_linear_8_15)"/>
<path d="M282.971 346.986C282.971 346.986 262.339 354.288 278.875 375.456" stroke="white" stroke-linecap="round" stroke-linejoin="round"/>
<path d="M312.281 352.848C312.281 352.848 284.175 378.637 268.625 378.453C253.076 378.269 234.818 374.585 224.067 355.996" stroke="white" stroke-linecap="round" stroke-linejoin="round"/>
<path d="M308.82 386.207C308.82 386.207 289.542 403.355 267.973 397.846" stroke="white" stroke-linecap="round" stroke-linejoin="round"/>
<path d="M288.572 411.83C288.572 411.83 278.457 419.416 264.312 412.231" stroke="white" stroke-linecap="round" stroke-linejoin="round"/>
<path d="M335.12 422.414C335.12 422.414 311.712 445.675 275.012 430.335" stroke="white" stroke-linecap="round" stroke-linejoin="round"/>
<path d="M322.413 399.722C322.413 399.722 312.883 406.554 306.914 408.732" stroke="white" stroke-linecap="round" stroke-linejoin="round"/>
<path d="M250.568 307.581C250.568 307.581 229.25 314.565 226.692 342.749" stroke="white" stroke-linecap="round" stroke-linejoin="round"/>
<path d="M239.851 342.398C239.851 342.398 230.036 357.62 246.622 372.826" stroke="white" stroke-linecap="round" stroke-linejoin="round"/>
<path d="M363.878 440.567C363.878 440.567 310.375 507.687 271.501 429.196" stroke="white" stroke-linecap="round" stroke-linejoin="round"/>
<path d="M750.256 274.138H737.783" stroke="#FF6D66" stroke-linecap="round" stroke-linejoin="round"/>
<path d="M55.13 123.803H42.657" stroke="#FF6D66" stroke-linecap="round" stroke-linejoin="round"/>
<path d="M389.777 38.0605H377.287" stroke="#FAD8B0" stroke-miterlimit="10"/>
<path d="M31.304 188.63L19.0319 190.84" stroke="#FAD8B0" stroke-miterlimit="10"/>
<path d="M521.496 500.503H509.006" stroke="#A0C6F4" stroke-linecap="round" stroke-linejoin="round"/>
<path d="M4.41907 348.829C2.13807 348.829 0.289062 346.977 0.289062 344.692C0.289062 342.408 2.13807 340.556 4.41907 340.556C6.70007 340.556 8.54907 342.408 8.54907 344.692C8.54907 346.977 6.70007 348.829 4.41907 348.829Z" fill="#91BA83"/>
<path d="M780.87 150.18C778.589 150.18 776.74 148.328 776.74 146.043C776.74 143.759 778.589 141.907 780.87 141.907C783.151 141.907 785 143.759 785 146.043C785 148.328 783.151 150.18 780.87 150.18Z" fill="#91BA83"/>
</g>
<defs>
<linearGradient id="paint0_linear_8_15" x1="634.756" y1="250.024" x2="555.646" y2="250.297" gradientUnits="userSpaceOnUse">
<stop stop-color="#42E396"/>
<stop offset="1" stop-color="#4A2FBD"/>
</linearGradient>
<linearGradient id="paint1_linear_8_15" x1="675.122" y1="301.97" x2="542.486" y2="302.276" gradientUnits="userSpaceOnUse">
<stop stop-color="#AA367C"/>
<stop offset="1" stop-color="#4A2FBD"/>
</linearGradient>
<linearGradient id="paint2_linear_8_15" x1="287.045" y1="330.243" x2="208.231" y2="330.466" gradientUnits="userSpaceOnUse">
<stop stop-color="#1CDAFF"/>
<stop offset="1" stop-color="#4A2FBD"/>
</linearGradient>
<linearGradient id="paint3_linear_8_15" x1="374.578" y1="402.211" x2="204.449" y2="403.021" gradientUnits="userSpaceOnUse">
<stop stop-color="#AA367C"/>
<stop offset="1" stop-color="#4A2FBD"/>
</linearGradient>
<clipPath id="clip0_8_15">
<rect width="785" height="589" fill="white" transform="matrix(-1 0 0 1 785 0)"/>
</clipPath>
</defs>
</svg>
