<svg width="349" height="121" viewBox="0 0 349 121" fill="none" xmlns="http://www.w3.org/2000/svg">
<path d="M102.104 82.9366C102.104 84.0939 102.042 85.2462 101.922 86.3986C101.802 87.546 101.62 88.6886 101.38 89.8214C101.141 90.9591 100.844 92.0773 100.484 93.1808C100.125 94.2892 99.7084 95.3781 99.2397 96.4425C98.7657 97.5118 98.2397 98.5568 97.6616 99.5773C97.0782 100.593 96.4428 101.584 95.7605 102.546C95.073 103.508 94.3438 104.436 93.5574 105.329C92.7761 106.223 91.948 107.077 91.0782 107.893C90.2084 108.713 89.2918 109.489 88.3386 110.222C87.3855 110.954 86.3959 111.643 85.3751 112.282C84.349 112.927 83.2917 113.518 82.2032 114.065C81.1147 114.611 80.0053 115.105 78.8647 115.544C77.724 115.988 76.5678 116.374 75.3855 116.711C74.2084 117.048 73.0105 117.326 71.8021 117.556C70.5938 117.78 69.3751 117.946 68.1459 118.064C66.9219 118.176 65.6928 118.23 64.4584 118.23C63.224 118.23 61.9948 118.176 60.7657 118.064C59.5417 117.946 58.323 117.78 57.1146 117.556C55.9011 117.326 54.7084 117.048 53.5313 116.711C52.349 116.374 51.1875 115.988 50.0521 115.544C48.9115 115.105 47.7969 114.611 46.7084 114.065C45.625 113.518 44.5677 112.927 43.5417 112.282C42.5156 111.643 41.5261 110.954 40.5729 110.222C39.6198 109.489 38.7084 108.713 37.8386 107.893C36.9636 107.077 36.1354 106.223 35.3542 105.329C34.5729 104.436 33.8386 103.508 33.1563 102.546C32.4688 101.584 31.8385 100.593 31.2552 99.5773C30.6719 98.5568 30.1458 97.5118 29.6771 96.4425C29.2031 95.3781 28.7917 94.2892 28.4323 93.1808C28.0729 92.0773 27.776 90.9591 27.5313 89.8214C27.2917 88.6886 27.1146 87.546 26.9896 86.3986C26.8698 85.2462 26.8125 84.0939 26.8125 82.9366C26.8125 81.7794 26.8698 80.6271 26.9896 79.4796C27.1146 78.3273 27.2917 77.1847 27.5313 76.0519C27.776 74.919 28.0729 73.796 28.4323 72.6925C28.7917 71.5841 29.2031 70.5001 29.6771 69.4308C30.1458 68.3614 30.6719 67.3214 31.2552 66.3009C31.8385 65.2804 32.4688 64.2892 33.1563 63.3272C33.8386 62.3702 34.5729 61.4425 35.3542 60.5489C36.1354 59.6554 36.9636 58.796 37.8386 57.9805C38.7084 57.1651 39.6198 56.3887 40.5729 55.6563C41.5261 54.919 42.5156 54.2354 43.5417 53.5909C44.5677 52.9512 45.625 52.3555 46.7084 51.8087C47.7969 51.2667 48.9115 50.7735 50.0521 50.3292C51.1875 49.8897 52.349 49.4991 53.5313 49.1622C54.7084 48.8253 55.9011 48.5469 57.1146 48.3223C58.323 48.0977 59.5417 47.9268 60.7657 47.8145C61.9948 47.7022 63.224 47.6436 64.4584 47.6436C65.6928 47.6436 66.9219 47.7022 68.1459 47.8145C69.3751 47.9268 70.5938 48.0977 71.8021 48.3223C73.0105 48.5469 74.2084 48.8253 75.3855 49.1622C76.5678 49.4991 77.724 49.8897 78.8647 50.3292C80.0053 50.7735 81.1147 51.2667 82.2032 51.8087C83.2917 52.3555 84.349 52.9512 85.3751 53.5909C86.3959 54.2354 87.3855 54.919 88.3386 55.6563C89.2918 56.3887 90.2084 57.1651 91.0782 57.9805C91.948 58.796 92.7761 59.6554 93.5574 60.5489C94.3438 61.4425 95.073 62.3702 95.7605 63.3272C96.4428 64.2892 97.0782 65.2804 97.6616 66.3009C98.2397 67.3214 98.7657 68.3614 99.2397 69.4308C99.7084 70.5001 100.125 71.5841 100.484 72.6925C100.844 73.796 101.141 74.919 101.38 76.0519C101.62 77.1847 101.802 78.3273 101.922 79.4796C102.042 80.6271 102.104 81.7794 102.104 82.9366Z" stroke="url(#paint0_linear_1106_5)" stroke-width="5.09352" stroke-miterlimit="10" stroke-linecap="round" stroke-linejoin="round"/>
<path d="M102.104 38.293C102.104 39.4502 102.042 40.6026 101.922 41.7549C101.802 42.9024 101.62 44.045 101.38 45.1778C101.141 46.3106 100.844 47.4336 100.484 48.5372C100.125 49.6456 99.7084 50.7344 99.2397 51.7989C98.7657 52.8682 98.2397 53.9132 97.6616 54.9337C97.0782 55.9493 96.4428 56.9405 95.7605 57.9024C95.073 58.8643 94.3438 59.7921 93.5574 60.6856C92.7761 61.5792 91.948 62.4337 91.0782 63.2491C90.2084 64.0694 89.2918 64.8409 88.3386 65.5782C87.3855 66.3106 86.3959 66.9991 85.3751 67.6388C84.349 68.2833 83.2917 68.8741 82.2032 69.421C81.1147 69.963 80.0053 70.461 78.8647 70.9005C77.724 71.3448 76.5678 71.7306 75.3855 72.0675C74.2084 72.4044 73.0105 72.6827 71.8021 72.9122C70.5938 73.1368 69.3751 73.3028 68.1459 73.42C66.9219 73.5323 65.6928 73.586 64.4584 73.586C63.224 73.586 61.9948 73.5323 60.7657 73.42C59.5417 73.3028 58.323 73.1368 57.1146 72.9073C55.9011 72.6827 54.7084 72.4044 53.5313 72.0675C52.349 71.7306 51.1875 71.3448 50.0521 70.9005C48.9115 70.461 47.7969 69.963 46.7084 69.421C45.625 68.8741 44.5677 68.2833 43.5417 67.6388C42.5156 66.9991 41.5261 66.3106 40.5729 65.5782C39.6198 64.8409 38.7084 64.0694 37.8386 63.2491C36.9636 62.4337 36.1354 61.5792 35.3542 60.6856C34.5729 59.7921 33.8386 58.8643 33.1563 57.9024C32.4688 56.9405 31.8385 55.9493 31.2552 54.9337C30.6719 53.9132 30.1458 52.8682 29.6771 51.7989C29.2031 50.7344 28.7917 49.6456 28.4323 48.5372C28.0729 47.4336 27.776 46.3106 27.5313 45.1778C27.2917 44.045 27.1146 42.9024 26.9896 41.7549C26.8698 40.6026 26.8125 39.4502 26.8125 38.293C26.8125 37.1358 26.8698 35.9834 26.9896 34.836C27.1146 33.6836 27.2917 32.5411 27.5313 31.4082C27.776 30.2754 28.0729 29.1524 28.4323 28.0489C28.7917 26.9405 29.2031 25.8565 29.6771 24.7871C30.1458 23.7178 30.6719 22.6778 31.2552 21.6573C31.8385 20.6367 32.4688 19.6455 33.1563 18.6836C33.8386 17.7217 34.5729 16.7988 35.3542 15.9053C36.1354 15.0117 36.9636 14.1524 37.8386 13.3369C38.7084 12.5215 39.6198 11.7451 40.5729 11.0127C41.5261 10.2754 42.5156 9.59181 43.5417 8.94727C44.5677 8.30762 45.625 7.71192 46.7084 7.16504C47.7969 6.62305 48.9115 6.12989 50.0521 5.68555C51.1875 5.24121 52.349 4.85547 53.5313 4.51856C54.7084 4.18164 55.9011 3.90332 57.1146 3.67871C58.323 3.4541 59.5417 3.2832 60.7657 3.1709C61.9948 3.05371 63.224 3 64.4584 3C65.6928 3 66.9219 3.05371 68.1459 3.1709C69.3751 3.2832 70.5938 3.4541 71.8021 3.67871C73.0105 3.90332 74.2084 4.18164 75.3855 4.51856C76.5678 4.85547 77.724 5.24121 78.8647 5.68555C80.0053 6.12989 81.1147 6.62305 82.2032 7.16504C83.2917 7.71192 84.349 8.30762 85.3751 8.94727C86.3959 9.59181 87.3855 10.2754 88.3386 11.0127C89.2918 11.7451 90.2084 12.5215 91.0782 13.3369C91.948 14.1524 92.7761 15.0117 93.5574 15.9053C94.3438 16.7988 95.073 17.7217 95.7605 18.6836C96.4428 19.6455 97.0782 20.6367 97.6616 21.6573C98.2397 22.6778 98.7657 23.7178 99.2397 24.7871C99.7084 25.8565 100.125 26.9405 100.484 28.0489C100.844 29.1524 101.141 30.2754 101.38 31.4082C101.62 32.5411 101.802 33.6836 101.922 34.836C102.042 35.9834 102.104 37.1358 102.104 38.293Z" stroke="url(#paint1_linear_1106_5)" stroke-width="5.09352" stroke-miterlimit="10" stroke-linecap="round" stroke-linejoin="round"/>
<path d="M78.297 60.6173C78.297 61.7696 78.2345 62.9269 78.1147 64.0743C77.9949 65.2267 77.8126 66.3693 77.573 67.5021C77.3334 68.6349 77.0313 69.753 76.672 70.8614C76.3178 71.965 75.9011 73.0538 75.4272 74.1232C74.9584 75.1876 74.4324 76.2325 73.8491 77.2531C73.2657 78.2736 72.6355 79.2648 71.948 80.2218C71.2657 81.1837 70.5313 82.1115 69.7501 83.005C68.9688 83.8986 68.1407 84.7531 67.2657 85.5734C66.3959 86.3888 65.4845 87.1652 64.5313 87.8976C63.5782 88.63 62.5886 89.3185 61.5626 89.963C60.5365 90.6027 59.4792 91.1984 58.3959 91.7404C57.3074 92.2873 56.1928 92.7804 55.0522 93.2248C53.9167 93.6642 52.7553 94.0548 51.5782 94.3917C50.3959 94.7238 49.2032 95.007 47.9896 95.2316C46.7813 95.4562 45.5626 95.6271 44.3386 95.7394C43.1094 95.8517 41.8803 95.9103 40.6459 95.9103C39.4167 95.9103 38.1823 95.8517 36.9584 95.7394C35.7292 95.6271 34.5105 95.4562 33.3021 95.2316C32.0938 95.007 30.9011 94.7238 29.7188 94.3917C28.5417 94.0548 27.3802 93.6642 26.2396 93.2248C25.099 92.7804 23.9896 92.2873 22.9011 91.7404C21.8125 91.1984 20.7552 90.6027 19.7344 89.963C18.7084 89.3185 17.7188 88.63 16.7656 87.8976C15.8125 87.1652 14.9011 86.3888 14.0261 85.5734C13.1563 84.7531 12.3281 83.8986 11.5469 83.005C10.7656 82.1115 10.0313 81.1837 9.34376 80.2218C8.66147 79.2648 8.02605 78.2736 7.44792 77.2531C6.86459 76.2325 6.33855 75.1876 5.86459 74.1232C5.39584 73.0538 4.97917 71.965 4.61979 70.8614C4.26563 69.753 3.96354 68.6349 3.72396 67.5021C3.48438 66.3693 3.30208 65.2267 3.18229 64.0743C3.0625 62.9269 3 61.7696 3 60.6173C3 59.4601 3.0625 58.3077 3.18229 57.1554C3.30208 56.0079 3.48438 54.8653 3.72396 53.7276C3.96354 52.5948 4.26563 51.4767 4.61979 50.3683C4.97917 49.2647 5.39584 48.1759 5.86459 47.1065C6.33855 46.0421 6.86459 44.9972 7.44792 43.9766C8.02605 42.9561 8.66147 41.9698 9.34376 41.0079C10.0313 40.046 10.7656 39.1182 11.5469 38.2247C12.3281 37.3311 13.1563 36.4766 14.0261 35.6563C14.9011 34.8409 15.8125 34.0645 16.7656 33.3321C17.7188 32.5997 18.7084 31.9112 19.7344 31.2716C20.7552 30.627 21.8125 30.0313 22.9011 29.4893C23.9896 28.9424 25.099 28.4493 26.2396 28.0098C27.3802 27.5655 28.5417 27.1749 29.7188 26.8428C30.9011 26.5059 32.0938 26.2227 33.3021 25.9981C34.5105 25.7735 35.7292 25.6026 36.9584 25.4903C38.1823 25.378 39.4167 25.3194 40.6459 25.3194C41.8803 25.3194 43.1094 25.378 44.3386 25.4903C45.5626 25.6026 46.7813 25.7735 47.9896 25.9981C49.2032 26.2227 50.3959 26.5059 51.5782 26.8428C52.7553 27.1749 53.9167 27.5655 55.0522 28.0098C56.1928 28.4493 57.3074 28.9424 58.3959 29.4893C59.4792 30.0313 60.5365 30.627 61.5626 31.2716C62.5886 31.9112 63.5782 32.5997 64.5313 33.3321C65.4845 34.0645 66.3959 34.8409 67.2657 35.6563C68.1407 36.4766 68.9688 37.3311 69.7501 38.2247C70.5313 39.1182 71.2657 40.046 71.948 41.0079C72.6355 41.9698 73.2657 42.9561 73.8491 43.9766C74.4324 44.9972 74.9584 46.0421 75.4272 47.1065C75.9011 48.1759 76.3178 49.2647 76.672 50.3683C77.0313 51.4767 77.3334 52.5948 77.573 53.7276C77.8126 54.8653 77.9949 56.0079 78.1147 57.1554C78.2345 58.3077 78.297 59.4601 78.297 60.6173Z" stroke="url(#paint2_linear_1106_5)" stroke-width="5.09352" stroke-miterlimit="10" stroke-linecap="round" stroke-linejoin="round"/>
<path d="M125.917 60.6173C125.917 61.7696 125.854 62.9269 125.735 64.0743C125.615 65.2267 125.432 66.3693 125.193 67.5021C124.953 68.6349 124.651 69.753 124.292 70.8614C123.938 71.965 123.521 73.0538 123.047 74.1232C122.578 75.1876 122.052 76.2325 121.469 77.2531C120.891 78.2736 120.255 79.2648 119.568 80.2218C118.886 81.1837 118.151 82.1115 117.37 83.005C116.589 83.8986 115.761 84.7531 114.891 85.5734C114.016 86.3888 113.104 87.1652 112.151 87.8976C111.198 88.63 110.208 89.3185 109.182 89.963C108.156 90.6027 107.104 91.1984 106.016 91.7404C104.927 92.2873 103.813 92.7804 102.672 93.2248C101.537 93.6642 100.375 94.0548 99.1981 94.3917C98.0158 94.7238 96.8231 95.007 95.6147 95.2316C94.4012 95.4562 93.1824 95.6271 91.9585 95.7394C90.7293 95.8517 89.5001 95.9103 88.2658 95.9103C87.0366 95.9103 85.8022 95.8517 84.5783 95.7394C83.3491 95.6271 82.1303 95.4562 80.922 95.2316C79.7137 95.007 78.521 94.7238 77.3387 94.3917C76.1616 94.0548 75.0001 93.6642 73.8595 93.2248C72.7241 92.7804 71.6095 92.2873 70.5209 91.7404C69.4324 91.1984 68.3751 90.6027 67.3543 89.963C66.3282 89.3185 65.3386 88.63 64.3855 87.8976C63.4324 87.1652 62.5209 86.3888 61.6459 85.5734C60.7761 84.7531 59.948 83.8986 59.1668 83.005C58.3855 82.1115 57.6511 81.1837 56.9636 80.2218C56.2813 79.2648 55.6459 78.2736 55.0678 77.2531C54.4845 76.2325 53.9584 75.1876 53.4845 74.1232C53.0157 73.0538 52.599 71.965 52.2397 70.8614C51.8855 69.753 51.5834 68.6349 51.3438 67.5021C51.1042 66.3693 50.922 65.2267 50.8022 64.0743C50.6824 62.9269 50.6199 61.7696 50.6199 60.6173C50.6199 59.4601 50.6824 58.3077 50.8022 57.1554C50.922 56.0079 51.1042 54.8653 51.3438 53.7276C51.5834 52.5948 51.8855 51.4767 52.2397 50.3683C52.599 49.2647 53.0157 48.1759 53.4845 47.1065C53.9584 46.0421 54.4845 44.9972 55.0678 43.9766C55.6459 42.9561 56.2813 41.9698 56.9636 41.0079C57.6511 40.046 58.3855 39.1182 59.1668 38.2247C59.948 37.3311 60.7761 36.4766 61.6459 35.6563C62.5209 34.8409 63.4324 34.0645 64.3855 33.3321C65.3386 32.5997 66.3282 31.9112 67.3543 31.2716C68.3751 30.627 69.4324 30.0313 70.5209 29.4893C71.6095 28.9424 72.7241 28.4493 73.8595 28.0098C75.0001 27.5655 76.1616 27.1749 77.3387 26.8428C78.521 26.5059 79.7137 26.2227 80.922 25.9981C82.1303 25.7735 83.3491 25.6026 84.5783 25.4903C85.8022 25.378 87.0366 25.3194 88.2658 25.3194C89.5001 25.3194 90.7293 25.378 91.9585 25.4903C93.1824 25.6026 94.4012 25.7735 95.6147 25.9981C96.8231 26.2227 98.0158 26.5059 99.1981 26.8428C100.375 27.1749 101.537 27.5655 102.677 28.0098C103.813 28.4493 104.927 28.9424 106.016 29.4893C107.104 30.0313 108.156 30.627 109.182 31.2716C110.208 31.9112 111.198 32.5997 112.151 33.3321C113.104 34.0645 114.016 34.8409 114.891 35.6563C115.761 36.4766 116.589 37.3311 117.37 38.2247C118.151 39.1182 118.886 40.046 119.568 41.0079C120.255 41.9698 120.891 42.9561 121.469 43.9766C122.052 44.9972 122.578 46.0421 123.047 47.1065C123.521 48.1759 123.938 49.2647 124.292 50.3683C124.651 51.4767 124.953 52.5948 125.193 53.7276C125.432 54.8653 125.615 56.0079 125.735 57.1554C125.854 58.3077 125.917 59.4601 125.917 60.6173Z" stroke="url(#paint3_linear_1106_5)" stroke-width="5.09352" stroke-miterlimit="10" stroke-linecap="round" stroke-linejoin="round"/>
<path d="M60.9062 57.2823V63.9473H68.0104V57.2823H60.9062Z" fill="url(#paint4_linear_1106_5)"/>
<path d="M174.704 48.55C174.704 45.15 175.47 42.1 177.004 39.4C178.537 36.6667 180.62 34.5333 183.254 33C185.92 31.4667 188.87 30.7 192.104 30.7C195.904 30.7 199.22 31.6167 202.054 33.45C204.887 35.2833 206.954 37.8833 208.254 41.25H202.804C201.837 39.15 200.437 37.5333 198.604 36.4C196.804 35.2667 194.637 34.7 192.104 34.7C189.67 34.7 187.487 35.2667 185.554 36.4C183.62 37.5333 182.104 39.15 181.004 41.25C179.904 43.3167 179.354 45.75 179.354 48.55C179.354 51.3167 179.904 53.75 181.004 55.85C182.104 57.9167 183.62 59.5167 185.554 60.65C187.487 61.7833 189.67 62.35 192.104 62.35C194.637 62.35 196.804 61.8 198.604 60.7C200.437 59.5667 201.837 57.95 202.804 55.85H208.254C206.954 59.1833 204.887 61.7667 202.054 63.6C199.22 65.4 195.904 66.3 192.104 66.3C188.87 66.3 185.92 65.55 183.254 64.05C180.62 62.5167 178.537 60.4 177.004 57.7C175.47 55 174.704 51.95 174.704 48.55ZM235.627 58.25H220.427L217.627 66H212.827L225.427 31.35H230.677L243.227 66H238.427L235.627 58.25ZM234.327 54.55L228.027 36.95L221.727 54.55H234.327ZM247.018 48.55C247.018 45.15 247.785 42.1 249.318 39.4C250.851 36.6667 252.935 34.5333 255.568 33C258.235 31.4667 261.185 30.7 264.418 30.7C268.218 30.7 271.535 31.6167 274.368 33.45C277.201 35.2833 279.268 37.8833 280.568 41.25H275.118C274.151 39.15 272.751 37.5333 270.918 36.4C269.118 35.2667 266.951 34.7 264.418 34.7C261.985 34.7 259.801 35.2667 257.868 36.4C255.935 37.5333 254.418 39.15 253.318 41.25C252.218 43.3167 251.668 45.75 251.668 48.55C251.668 51.3167 252.218 53.75 253.318 55.85C254.418 57.9167 255.935 59.5167 257.868 60.65C259.801 61.7833 261.985 62.35 264.418 62.35C266.951 62.35 269.118 61.8 270.918 60.7C272.751 59.5667 274.151 57.95 275.118 55.85H280.568C279.268 59.1833 277.201 61.7667 274.368 63.6C271.535 65.4 268.218 66.3 264.418 66.3C261.185 66.3 258.235 65.55 255.568 64.05C252.935 62.5167 250.851 60.4 249.318 57.7C247.785 55 247.018 51.95 247.018 48.55ZM310.641 41.35C310.641 44.25 309.641 46.6667 307.641 48.6C305.675 50.5 302.658 51.45 298.591 51.45H291.891V66H287.341V31.15H298.591C302.525 31.15 305.508 32.1 307.541 34C309.608 35.9 310.641 38.35 310.641 41.35ZM298.591 47.7C301.125 47.7 302.991 47.15 304.191 46.05C305.391 44.95 305.991 43.3833 305.991 41.35C305.991 37.05 303.525 34.9 298.591 34.9H291.891V47.7H298.591Z" fill="#42E396"/>
<path d="M170.499 82.3L166.224 96H163.874L160.574 85.125L157.274 96H154.924L150.624 82.3H152.949L156.099 93.8L159.499 82.3H161.824L165.149 93.825L168.249 82.3H170.499ZM185.257 88.625C185.257 89.0583 185.232 89.5167 185.182 90H174.232C174.315 91.35 174.774 92.4083 175.607 93.175C176.457 93.925 177.482 94.3 178.682 94.3C179.665 94.3 180.482 94.075 181.132 93.625C181.799 93.1583 182.265 92.5417 182.532 91.775H184.982C184.615 93.0917 183.882 94.1667 182.782 95C181.682 95.8167 180.315 96.225 178.682 96.225C177.382 96.225 176.215 95.9333 175.182 95.35C174.165 94.7667 173.365 93.9417 172.782 92.875C172.199 91.7917 171.907 90.5417 171.907 89.125C171.907 87.7083 172.19 86.4667 172.757 85.4C173.324 84.3333 174.115 83.5167 175.132 82.95C176.165 82.3667 177.349 82.075 178.682 82.075C179.982 82.075 181.132 82.3583 182.132 82.925C183.132 83.4917 183.899 84.275 184.432 85.275C184.982 86.2583 185.257 87.375 185.257 88.625ZM182.907 88.15C182.907 87.2833 182.715 86.5417 182.332 85.925C181.949 85.2917 181.424 84.8167 180.757 84.5C180.107 84.1667 179.382 84 178.582 84C177.432 84 176.449 84.3667 175.632 85.1C174.832 85.8333 174.374 86.85 174.257 88.15H182.907ZM190.535 84.85C191.002 84.0333 191.685 83.3667 192.585 82.85C193.485 82.3333 194.51 82.075 195.66 82.075C196.893 82.075 198.002 82.3667 198.985 82.95C199.968 83.5333 200.743 84.3583 201.31 85.425C201.877 86.475 202.16 87.7 202.16 89.1C202.16 90.4833 201.877 91.7167 201.31 92.8C200.743 93.8833 199.96 94.725 198.96 95.325C197.977 95.925 196.877 96.225 195.66 96.225C194.477 96.225 193.435 95.9667 192.535 95.45C191.652 94.9333 190.985 94.275 190.535 93.475V96H188.26V77.5H190.535V84.85ZM199.835 89.1C199.835 88.0667 199.627 87.1667 199.21 86.4C198.793 85.6333 198.227 85.05 197.51 84.65C196.81 84.25 196.035 84.05 195.185 84.05C194.352 84.05 193.577 84.2583 192.86 84.675C192.16 85.075 191.593 85.6667 191.16 86.45C190.743 87.2167 190.535 88.1083 190.535 89.125C190.535 90.1583 190.743 91.0667 191.16 91.85C191.593 92.6167 192.16 93.2083 192.86 93.625C193.577 94.025 194.352 94.225 195.185 94.225C196.035 94.225 196.81 94.025 197.51 93.625C198.227 93.2083 198.793 92.6167 199.21 91.85C199.627 91.0667 199.835 90.15 199.835 89.1ZM210.97 89.1C210.97 87.7 211.253 86.475 211.82 85.425C212.386 84.3583 213.161 83.5333 214.145 82.95C215.145 82.3667 216.261 82.075 217.495 82.075C218.561 82.075 219.553 82.325 220.47 82.825C221.386 83.3083 222.086 83.95 222.57 84.75V77.5H224.87V96H222.57V93.425C222.12 94.2417 221.453 94.9167 220.57 95.45C219.686 95.9667 218.653 96.225 217.47 96.225C216.253 96.225 215.145 95.925 214.145 95.325C213.161 94.725 212.386 93.8833 211.82 92.8C211.253 91.7167 210.97 90.4833 210.97 89.1ZM222.57 89.125C222.57 88.0917 222.361 87.1917 221.945 86.425C221.528 85.6583 220.961 85.075 220.245 84.675C219.545 84.2583 218.77 84.05 217.92 84.05C217.07 84.05 216.295 84.25 215.595 84.65C214.895 85.05 214.336 85.6333 213.92 86.4C213.503 87.1667 213.295 88.0667 213.295 89.1C213.295 90.15 213.503 91.0667 213.92 91.85C214.336 92.6167 214.895 93.2083 215.595 93.625C216.295 94.025 217.07 94.225 217.92 94.225C218.77 94.225 219.545 94.025 220.245 93.625C220.961 93.2083 221.528 92.6167 221.945 91.85C222.361 91.0667 222.57 90.1583 222.57 89.125ZM241.214 88.625C241.214 89.0583 241.189 89.5167 241.139 90H230.189C230.272 91.35 230.731 92.4083 231.564 93.175C232.414 93.925 233.439 94.3 234.639 94.3C235.622 94.3 236.439 94.075 237.089 93.625C237.756 93.1583 238.222 92.5417 238.489 91.775H240.939C240.572 93.0917 239.839 94.1667 238.739 95C237.639 95.8167 236.272 96.225 234.639 96.225C233.339 96.225 232.172 95.9333 231.139 95.35C230.122 94.7667 229.322 93.9417 228.739 92.875C228.156 91.7917 227.864 90.5417 227.864 89.125C227.864 87.7083 228.147 86.4667 228.714 85.4C229.281 84.3333 230.072 83.5167 231.089 82.95C232.122 82.3667 233.306 82.075 234.639 82.075C235.939 82.075 237.089 82.3583 238.089 82.925C239.089 83.4917 239.856 84.275 240.389 85.275C240.939 86.2583 241.214 87.375 241.214 88.625ZM238.864 88.15C238.864 87.2833 238.672 86.5417 238.289 85.925C237.906 85.2917 237.381 84.8167 236.714 84.5C236.064 84.1667 235.339 84 234.539 84C233.389 84 232.406 84.3667 231.589 85.1C230.789 85.8333 230.331 86.85 230.214 88.15H238.864ZM249.317 93.9L253.567 82.3H255.992L250.617 96H247.967L242.592 82.3H245.042L249.317 93.9ZM270.731 88.625C270.731 89.0583 270.706 89.5167 270.656 90H259.706C259.789 91.35 260.247 92.4083 261.081 93.175C261.931 93.925 262.956 94.3 264.156 94.3C265.139 94.3 265.956 94.075 266.606 93.625C267.272 93.1583 267.739 92.5417 268.006 91.775H270.456C270.089 93.0917 269.356 94.1667 268.256 95C267.156 95.8167 265.789 96.225 264.156 96.225C262.856 96.225 261.689 95.9333 260.656 95.35C259.639 94.7667 258.839 93.9417 258.256 92.875C257.672 91.7917 257.381 90.5417 257.381 89.125C257.381 87.7083 257.664 86.4667 258.231 85.4C258.797 84.3333 259.589 83.5167 260.606 82.95C261.639 82.3667 262.822 82.075 264.156 82.075C265.456 82.075 266.606 82.3583 267.606 82.925C268.606 83.4917 269.372 84.275 269.906 85.275C270.456 86.2583 270.731 87.375 270.731 88.625ZM268.381 88.15C268.381 87.2833 268.189 86.5417 267.806 85.925C267.422 85.2917 266.897 84.8167 266.231 84.5C265.581 84.1667 264.856 84 264.056 84C262.906 84 261.922 84.3667 261.106 85.1C260.306 85.8333 259.847 86.85 259.731 88.15H268.381ZM276.009 77.5V96H273.734V77.5H276.009ZM285.861 96.225C284.578 96.225 283.411 95.9333 282.361 95.35C281.328 94.7667 280.511 93.9417 279.911 92.875C279.328 91.7917 279.036 90.5417 279.036 89.125C279.036 87.725 279.336 86.4917 279.936 85.425C280.553 84.3417 281.386 83.5167 282.436 82.95C283.486 82.3667 284.661 82.075 285.961 82.075C287.261 82.075 288.436 82.3667 289.486 82.95C290.536 83.5167 291.361 84.3333 291.961 85.4C292.578 86.4667 292.886 87.7083 292.886 89.125C292.886 90.5417 292.569 91.7917 291.936 92.875C291.319 93.9417 290.478 94.7667 289.411 95.35C288.344 95.9333 287.161 96.225 285.861 96.225ZM285.861 94.225C286.678 94.225 287.444 94.0333 288.161 93.65C288.878 93.2667 289.453 92.6917 289.886 91.925C290.336 91.1583 290.561 90.225 290.561 89.125C290.561 88.025 290.344 87.0917 289.911 86.325C289.478 85.5583 288.911 84.9917 288.211 84.625C287.511 84.2417 286.753 84.05 285.936 84.05C285.103 84.05 284.336 84.2417 283.636 84.625C282.953 84.9917 282.403 85.5583 281.986 86.325C281.569 87.0917 281.361 88.025 281.361 89.125C281.361 90.2417 281.561 91.1833 281.961 91.95C282.378 92.7167 282.928 93.2917 283.611 93.675C284.294 94.0417 285.044 94.225 285.861 94.225ZM298.152 84.825C298.602 84.0417 299.269 83.3917 300.152 82.875C301.052 82.3417 302.094 82.075 303.277 82.075C304.494 82.075 305.594 82.3667 306.577 82.95C307.577 83.5333 308.36 84.3583 308.927 85.425C309.494 86.475 309.777 87.7 309.777 89.1C309.777 90.4833 309.494 91.7167 308.927 92.8C308.36 93.8833 307.577 94.725 306.577 95.325C305.594 95.925 304.494 96.225 303.277 96.225C302.11 96.225 301.077 95.9667 300.177 95.45C299.294 94.9167 298.619 94.2583 298.152 93.475V102.5H295.877V82.3H298.152V84.825ZM307.452 89.1C307.452 88.0667 307.244 87.1667 306.827 86.4C306.41 85.6333 305.844 85.05 305.127 84.65C304.427 84.25 303.652 84.05 302.802 84.05C301.969 84.05 301.194 84.2583 300.477 84.675C299.777 85.075 299.21 85.6667 298.777 86.45C298.36 87.2167 298.152 88.1083 298.152 89.125C298.152 90.1583 298.36 91.0667 298.777 91.85C299.21 92.6167 299.777 93.2083 300.477 93.625C301.194 94.025 301.969 94.225 302.802 94.225C303.652 94.225 304.427 94.025 305.127 93.625C305.844 93.2083 306.41 92.6167 306.827 91.85C307.244 91.0667 307.452 90.15 307.452 89.1ZM325.272 88.625C325.272 89.0583 325.247 89.5167 325.197 90H314.247C314.33 91.35 314.788 92.4083 315.622 93.175C316.472 93.925 317.497 94.3 318.697 94.3C319.68 94.3 320.497 94.075 321.147 93.625C321.813 93.1583 322.28 92.5417 322.547 91.775H324.997C324.63 93.0917 323.897 94.1667 322.797 95C321.697 95.8167 320.33 96.225 318.697 96.225C317.397 96.225 316.23 95.9333 315.197 95.35C314.18 94.7667 313.38 93.9417 312.797 92.875C312.213 91.7917 311.922 90.5417 311.922 89.125C311.922 87.7083 312.205 86.4667 312.772 85.4C313.338 84.3333 314.13 83.5167 315.147 82.95C316.18 82.3667 317.363 82.075 318.697 82.075C319.997 82.075 321.147 82.3583 322.147 82.925C323.147 83.4917 323.913 84.275 324.447 85.275C324.997 86.2583 325.272 87.375 325.272 88.625ZM322.922 88.15C322.922 87.2833 322.73 86.5417 322.347 85.925C321.963 85.2917 321.438 84.8167 320.772 84.5C320.122 84.1667 319.397 84 318.597 84C317.447 84 316.463 84.3667 315.647 85.1C314.847 85.8333 314.388 86.85 314.272 88.15H322.922ZM330.55 84.525C330.95 83.7417 331.516 83.1333 332.25 82.7C333 82.2667 333.908 82.05 334.975 82.05V84.4H334.375C331.825 84.4 330.55 85.7833 330.55 88.55V96H328.275V82.3H330.55V84.525Z" fill="#27DCE2"/>
<defs>
<linearGradient id="paint0_linear_1106_5" x1="24.2635" y1="82.9375" x2="104.651" y2="82.9375" gradientUnits="userSpaceOnUse">
<stop stop-color="#42E396"/>
<stop offset="0.0078125" stop-color="#42E396"/>
<stop offset="0.015625" stop-color="#42E397"/>
<stop offset="0.0234375" stop-color="#42E397"/>
<stop offset="0.03125" stop-color="#41E398"/>
<stop offset="0.0390625" stop-color="#41E399"/>
<stop offset="0.046875" stop-color="#41E39A"/>
<stop offset="0.0546875" stop-color="#40E39B"/>
<stop offset="0.0625" stop-color="#40E29C"/>
<stop offset="0.0703125" stop-color="#40E29D"/>
<stop offset="0.078125" stop-color="#3FE29D"/>
<stop offset="0.0859375" stop-color="#3FE29E"/>
<stop offset="0.09375" stop-color="#3FE29F"/>
<stop offset="0.101562" stop-color="#3EE2A0"/>
<stop offset="0.109375" stop-color="#3EE2A1"/>
<stop offset="0.117188" stop-color="#3EE2A2"/>
<stop offset="0.125" stop-color="#3DE2A3"/>
<stop offset="0.132812" stop-color="#3DE2A3"/>
<stop offset="0.140625" stop-color="#3DE2A4"/>
<stop offset="0.148438" stop-color="#3DE2A5"/>
<stop offset="0.15625" stop-color="#3CE2A6"/>
<stop offset="0.164062" stop-color="#3CE2A7"/>
<stop offset="0.171875" stop-color="#3CE1A8"/>
<stop offset="0.179688" stop-color="#3BE1A9"/>
<stop offset="0.1875" stop-color="#3BE1A9"/>
<stop offset="0.195312" stop-color="#3BE1AA"/>
<stop offset="0.203125" stop-color="#3AE1AB"/>
<stop offset="0.210938" stop-color="#3AE1AC"/>
<stop offset="0.21875" stop-color="#3AE1AD"/>
<stop offset="0.226562" stop-color="#39E1AE"/>
<stop offset="0.234375" stop-color="#39E1AF"/>
<stop offset="0.242188" stop-color="#39E1AF"/>
<stop offset="0.25" stop-color="#39E1B0"/>
<stop offset="0.257813" stop-color="#38E1B1"/>
<stop offset="0.265625" stop-color="#38E1B2"/>
<stop offset="0.273438" stop-color="#38E0B3"/>
<stop offset="0.28125" stop-color="#37E0B4"/>
<stop offset="0.289063" stop-color="#37E0B5"/>
<stop offset="0.296875" stop-color="#37E0B5"/>
<stop offset="0.304688" stop-color="#36E0B6"/>
<stop offset="0.3125" stop-color="#36E0B7"/>
<stop offset="0.320313" stop-color="#36E0B8"/>
<stop offset="0.328125" stop-color="#35E0B9"/>
<stop offset="0.335938" stop-color="#35E0BA"/>
<stop offset="0.34375" stop-color="#35E0BB"/>
<stop offset="0.351562" stop-color="#34E0BB"/>
<stop offset="0.359375" stop-color="#34E0BC"/>
<stop offset="0.367188" stop-color="#34E0BD"/>
<stop offset="0.375" stop-color="#34E0BE"/>
<stop offset="0.382813" stop-color="#33DFBF"/>
<stop offset="0.390625" stop-color="#33DFC0"/>
<stop offset="0.398438" stop-color="#33DFC1"/>
<stop offset="0.40625" stop-color="#32DFC1"/>
<stop offset="0.414062" stop-color="#32DFC2"/>
<stop offset="0.421875" stop-color="#32DFC3"/>
<stop offset="0.429688" stop-color="#31DFC4"/>
<stop offset="0.4375" stop-color="#31DFC5"/>
<stop offset="0.445313" stop-color="#31DFC6"/>
<stop offset="0.453125" stop-color="#30DFC7"/>
<stop offset="0.460938" stop-color="#30DFC7"/>
<stop offset="0.46875" stop-color="#30DFC8"/>
<stop offset="0.476563" stop-color="#30DFC9"/>
<stop offset="0.484375" stop-color="#2FDFCA"/>
<stop offset="0.492188" stop-color="#2FDECB"/>
<stop offset="0.5" stop-color="#2FDECC"/>
<stop offset="0.507813" stop-color="#2EDECD"/>
<stop offset="0.515625" stop-color="#2EDECD"/>
<stop offset="0.523438" stop-color="#2EDECE"/>
<stop offset="0.53125" stop-color="#2DDECF"/>
<stop offset="0.539062" stop-color="#2DDED0"/>
<stop offset="0.546875" stop-color="#2DDED1"/>
<stop offset="0.554688" stop-color="#2CDED2"/>
<stop offset="0.5625" stop-color="#2CDED3"/>
<stop offset="0.570312" stop-color="#2CDED3"/>
<stop offset="0.578125" stop-color="#2CDED4"/>
<stop offset="0.585937" stop-color="#2BDED5"/>
<stop offset="0.59375" stop-color="#2BDED6"/>
<stop offset="0.601563" stop-color="#2BDDD7"/>
<stop offset="0.609375" stop-color="#2ADDD8"/>
<stop offset="0.617188" stop-color="#2ADDD9"/>
<stop offset="0.625" stop-color="#2ADDD9"/>
<stop offset="0.632813" stop-color="#29DDDA"/>
<stop offset="0.640625" stop-color="#29DDDB"/>
<stop offset="0.648438" stop-color="#29DDDC"/>
<stop offset="0.65625" stop-color="#28DDDD"/>
<stop offset="0.664062" stop-color="#28DDDE"/>
<stop offset="0.671875" stop-color="#28DDDF"/>
<stop offset="0.679688" stop-color="#27DDDF"/>
<stop offset="0.6875" stop-color="#27DDE0"/>
<stop offset="0.695313" stop-color="#27DDE1"/>
<stop offset="0.703125" stop-color="#27DCE2"/>
<stop offset="0.710938" stop-color="#26DCE3"/>
<stop offset="0.71875" stop-color="#26DCE4"/>
<stop offset="0.726563" stop-color="#26DCE5"/>
<stop offset="0.734375" stop-color="#25DCE5"/>
<stop offset="0.742188" stop-color="#25DCE6"/>
<stop offset="0.75" stop-color="#25DCE7"/>
<stop offset="0.757812" stop-color="#24DCE8"/>
<stop offset="0.765625" stop-color="#24DCE9"/>
<stop offset="0.773438" stop-color="#24DCEA"/>
<stop offset="0.78125" stop-color="#23DCEB"/>
<stop offset="0.789062" stop-color="#23DCEB"/>
<stop offset="0.796875" stop-color="#23DCEC"/>
<stop offset="0.804688" stop-color="#23DCED"/>
<stop offset="0.8125" stop-color="#22DBEE"/>
<stop offset="0.820313" stop-color="#22DBEF"/>
<stop offset="0.828125" stop-color="#22DBF0"/>
<stop offset="0.835938" stop-color="#21DBF1"/>
<stop offset="0.84375" stop-color="#21DBF1"/>
<stop offset="0.851563" stop-color="#21DBF2"/>
<stop offset="0.859375" stop-color="#20DBF3"/>
<stop offset="0.867188" stop-color="#20DBF4"/>
<stop offset="0.875" stop-color="#20DBF5"/>
<stop offset="0.882812" stop-color="#1FDBF6"/>
<stop offset="0.890625" stop-color="#1FDBF7"/>
<stop offset="0.898438" stop-color="#1FDBF7"/>
<stop offset="0.90625" stop-color="#1EDBF8"/>
<stop offset="0.914062" stop-color="#1EDBF9"/>
<stop offset="0.921875" stop-color="#1EDAFA"/>
<stop offset="0.929687" stop-color="#1EDAFB"/>
<stop offset="0.9375" stop-color="#1DDAFC"/>
<stop offset="0.945313" stop-color="#1DDAFD"/>
<stop offset="0.953125" stop-color="#1DDAFD"/>
<stop offset="0.960938" stop-color="#1CDAFE"/>
<stop offset="0.96875" stop-color="#1CDAFF"/>
<stop offset="1" stop-color="#1CDAFF"/>
</linearGradient>
<linearGradient id="paint1_linear_1106_5" x1="24.2635" y1="38.2937" x2="104.651" y2="38.2937" gradientUnits="userSpaceOnUse">
<stop stop-color="#42E396"/>
<stop offset="0.0078125" stop-color="#42E396"/>
<stop offset="0.015625" stop-color="#42E397"/>
<stop offset="0.0234375" stop-color="#42E397"/>
<stop offset="0.03125" stop-color="#41E398"/>
<stop offset="0.0390625" stop-color="#41E399"/>
<stop offset="0.046875" stop-color="#41E39A"/>
<stop offset="0.0546875" stop-color="#40E39B"/>
<stop offset="0.0625" stop-color="#40E29C"/>
<stop offset="0.0703125" stop-color="#40E29D"/>
<stop offset="0.078125" stop-color="#3FE29D"/>
<stop offset="0.0859375" stop-color="#3FE29E"/>
<stop offset="0.09375" stop-color="#3FE29F"/>
<stop offset="0.101562" stop-color="#3EE2A0"/>
<stop offset="0.109375" stop-color="#3EE2A1"/>
<stop offset="0.117188" stop-color="#3EE2A2"/>
<stop offset="0.125" stop-color="#3DE2A3"/>
<stop offset="0.132812" stop-color="#3DE2A3"/>
<stop offset="0.140625" stop-color="#3DE2A4"/>
<stop offset="0.148438" stop-color="#3DE2A5"/>
<stop offset="0.15625" stop-color="#3CE2A6"/>
<stop offset="0.164062" stop-color="#3CE2A7"/>
<stop offset="0.171875" stop-color="#3CE1A8"/>
<stop offset="0.179688" stop-color="#3BE1A9"/>
<stop offset="0.1875" stop-color="#3BE1A9"/>
<stop offset="0.195312" stop-color="#3BE1AA"/>
<stop offset="0.203125" stop-color="#3AE1AB"/>
<stop offset="0.210938" stop-color="#3AE1AC"/>
<stop offset="0.21875" stop-color="#3AE1AD"/>
<stop offset="0.226562" stop-color="#39E1AE"/>
<stop offset="0.234375" stop-color="#39E1AF"/>
<stop offset="0.242188" stop-color="#39E1AF"/>
<stop offset="0.25" stop-color="#39E1B0"/>
<stop offset="0.257813" stop-color="#38E1B1"/>
<stop offset="0.265625" stop-color="#38E1B2"/>
<stop offset="0.273438" stop-color="#38E0B3"/>
<stop offset="0.28125" stop-color="#37E0B4"/>
<stop offset="0.289063" stop-color="#37E0B5"/>
<stop offset="0.296875" stop-color="#37E0B5"/>
<stop offset="0.304688" stop-color="#36E0B6"/>
<stop offset="0.3125" stop-color="#36E0B7"/>
<stop offset="0.320313" stop-color="#36E0B8"/>
<stop offset="0.328125" stop-color="#35E0B9"/>
<stop offset="0.335938" stop-color="#35E0BA"/>
<stop offset="0.34375" stop-color="#35E0BB"/>
<stop offset="0.351562" stop-color="#34E0BB"/>
<stop offset="0.359375" stop-color="#34E0BC"/>
<stop offset="0.367188" stop-color="#34E0BD"/>
<stop offset="0.375" stop-color="#34E0BE"/>
<stop offset="0.382813" stop-color="#33DFBF"/>
<stop offset="0.390625" stop-color="#33DFC0"/>
<stop offset="0.398438" stop-color="#33DFC1"/>
<stop offset="0.40625" stop-color="#32DFC1"/>
<stop offset="0.414062" stop-color="#32DFC2"/>
<stop offset="0.421875" stop-color="#32DFC3"/>
<stop offset="0.429688" stop-color="#31DFC4"/>
<stop offset="0.4375" stop-color="#31DFC5"/>
<stop offset="0.445313" stop-color="#31DFC6"/>
<stop offset="0.453125" stop-color="#30DFC7"/>
<stop offset="0.460938" stop-color="#30DFC7"/>
<stop offset="0.46875" stop-color="#30DFC8"/>
<stop offset="0.476563" stop-color="#30DFC9"/>
<stop offset="0.484375" stop-color="#2FDFCA"/>
<stop offset="0.492188" stop-color="#2FDECB"/>
<stop offset="0.5" stop-color="#2FDECC"/>
<stop offset="0.507813" stop-color="#2EDECD"/>
<stop offset="0.515625" stop-color="#2EDECD"/>
<stop offset="0.523438" stop-color="#2EDECE"/>
<stop offset="0.53125" stop-color="#2DDECF"/>
<stop offset="0.539062" stop-color="#2DDED0"/>
<stop offset="0.546875" stop-color="#2DDED1"/>
<stop offset="0.554688" stop-color="#2CDED2"/>
<stop offset="0.5625" stop-color="#2CDED3"/>
<stop offset="0.570312" stop-color="#2CDED3"/>
<stop offset="0.578125" stop-color="#2CDED4"/>
<stop offset="0.585937" stop-color="#2BDED5"/>
<stop offset="0.59375" stop-color="#2BDED6"/>
<stop offset="0.601563" stop-color="#2BDDD7"/>
<stop offset="0.609375" stop-color="#2ADDD8"/>
<stop offset="0.617188" stop-color="#2ADDD9"/>
<stop offset="0.625" stop-color="#2ADDD9"/>
<stop offset="0.632813" stop-color="#29DDDA"/>
<stop offset="0.640625" stop-color="#29DDDB"/>
<stop offset="0.648438" stop-color="#29DDDC"/>
<stop offset="0.65625" stop-color="#28DDDD"/>
<stop offset="0.664062" stop-color="#28DDDE"/>
<stop offset="0.671875" stop-color="#28DDDF"/>
<stop offset="0.679688" stop-color="#27DDDF"/>
<stop offset="0.6875" stop-color="#27DDE0"/>
<stop offset="0.695313" stop-color="#27DDE1"/>
<stop offset="0.703125" stop-color="#27DCE2"/>
<stop offset="0.710938" stop-color="#26DCE3"/>
<stop offset="0.71875" stop-color="#26DCE4"/>
<stop offset="0.726563" stop-color="#26DCE5"/>
<stop offset="0.734375" stop-color="#25DCE5"/>
<stop offset="0.742188" stop-color="#25DCE6"/>
<stop offset="0.75" stop-color="#25DCE7"/>
<stop offset="0.757812" stop-color="#24DCE8"/>
<stop offset="0.765625" stop-color="#24DCE9"/>
<stop offset="0.773438" stop-color="#24DCEA"/>
<stop offset="0.78125" stop-color="#23DCEB"/>
<stop offset="0.789062" stop-color="#23DCEB"/>
<stop offset="0.796875" stop-color="#23DCEC"/>
<stop offset="0.804688" stop-color="#23DCED"/>
<stop offset="0.8125" stop-color="#22DBEE"/>
<stop offset="0.820313" stop-color="#22DBEF"/>
<stop offset="0.828125" stop-color="#22DBF0"/>
<stop offset="0.835938" stop-color="#21DBF1"/>
<stop offset="0.84375" stop-color="#21DBF1"/>
<stop offset="0.851563" stop-color="#21DBF2"/>
<stop offset="0.859375" stop-color="#20DBF3"/>
<stop offset="0.867188" stop-color="#20DBF4"/>
<stop offset="0.875" stop-color="#20DBF5"/>
<stop offset="0.882812" stop-color="#1FDBF6"/>
<stop offset="0.890625" stop-color="#1FDBF7"/>
<stop offset="0.898438" stop-color="#1FDBF7"/>
<stop offset="0.90625" stop-color="#1EDBF8"/>
<stop offset="0.914062" stop-color="#1EDBF9"/>
<stop offset="0.921875" stop-color="#1EDAFA"/>
<stop offset="0.929687" stop-color="#1EDAFB"/>
<stop offset="0.9375" stop-color="#1DDAFC"/>
<stop offset="0.945313" stop-color="#1DDAFD"/>
<stop offset="0.953125" stop-color="#1DDAFD"/>
<stop offset="0.960938" stop-color="#1CDAFE"/>
<stop offset="0.96875" stop-color="#1CDAFF"/>
<stop offset="1" stop-color="#1CDAFF"/>
</linearGradient>
<linearGradient id="paint2_linear_1106_5" x1="40.6473" y1="22.9336" x2="40.6473" y2="98.2973" gradientUnits="userSpaceOnUse">
<stop stop-color="#42E396"/>
<stop offset="0.0078125" stop-color="#42E396"/>
<stop offset="0.015625" stop-color="#42E397"/>
<stop offset="0.0234375" stop-color="#42E397"/>
<stop offset="0.03125" stop-color="#41E398"/>
<stop offset="0.0390625" stop-color="#41E399"/>
<stop offset="0.046875" stop-color="#41E39A"/>
<stop offset="0.0546875" stop-color="#40E39B"/>
<stop offset="0.0625" stop-color="#40E29C"/>
<stop offset="0.0703125" stop-color="#40E29D"/>
<stop offset="0.078125" stop-color="#3FE29D"/>
<stop offset="0.0859375" stop-color="#3FE29E"/>
<stop offset="0.09375" stop-color="#3FE29F"/>
<stop offset="0.101562" stop-color="#3EE2A0"/>
<stop offset="0.109375" stop-color="#3EE2A1"/>
<stop offset="0.117188" stop-color="#3EE2A2"/>
<stop offset="0.125" stop-color="#3DE2A3"/>
<stop offset="0.132812" stop-color="#3DE2A3"/>
<stop offset="0.140625" stop-color="#3DE2A4"/>
<stop offset="0.148437" stop-color="#3DE2A5"/>
<stop offset="0.15625" stop-color="#3CE2A6"/>
<stop offset="0.164062" stop-color="#3CE2A7"/>
<stop offset="0.171875" stop-color="#3CE1A8"/>
<stop offset="0.179687" stop-color="#3BE1A9"/>
<stop offset="0.1875" stop-color="#3BE1A9"/>
<stop offset="0.195312" stop-color="#3BE1AA"/>
<stop offset="0.203125" stop-color="#3AE1AB"/>
<stop offset="0.210937" stop-color="#3AE1AC"/>
<stop offset="0.21875" stop-color="#3AE1AD"/>
<stop offset="0.226562" stop-color="#39E1AE"/>
<stop offset="0.234375" stop-color="#39E1AF"/>
<stop offset="0.242187" stop-color="#39E1AF"/>
<stop offset="0.25" stop-color="#39E1B0"/>
<stop offset="0.257812" stop-color="#38E1B1"/>
<stop offset="0.265625" stop-color="#38E1B2"/>
<stop offset="0.273437" stop-color="#38E0B3"/>
<stop offset="0.28125" stop-color="#37E0B4"/>
<stop offset="0.289063" stop-color="#37E0B5"/>
<stop offset="0.296875" stop-color="#37E0B5"/>
<stop offset="0.304688" stop-color="#36E0B6"/>
<stop offset="0.3125" stop-color="#36E0B7"/>
<stop offset="0.320312" stop-color="#36E0B8"/>
<stop offset="0.328125" stop-color="#35E0B9"/>
<stop offset="0.335937" stop-color="#35E0BA"/>
<stop offset="0.34375" stop-color="#35E0BB"/>
<stop offset="0.351562" stop-color="#34E0BB"/>
<stop offset="0.359375" stop-color="#34E0BC"/>
<stop offset="0.367188" stop-color="#34E0BD"/>
<stop offset="0.375" stop-color="#34E0BE"/>
<stop offset="0.382812" stop-color="#33DFBF"/>
<stop offset="0.390625" stop-color="#33DFC0"/>
<stop offset="0.398437" stop-color="#33DFC1"/>
<stop offset="0.40625" stop-color="#32DFC1"/>
<stop offset="0.414062" stop-color="#32DFC2"/>
<stop offset="0.421875" stop-color="#32DFC3"/>
<stop offset="0.429688" stop-color="#31DFC4"/>
<stop offset="0.4375" stop-color="#31DFC5"/>
<stop offset="0.445312" stop-color="#31DFC6"/>
<stop offset="0.453125" stop-color="#30DFC7"/>
<stop offset="0.460937" stop-color="#30DFC7"/>
<stop offset="0.46875" stop-color="#30DFC8"/>
<stop offset="0.476562" stop-color="#30DFC9"/>
<stop offset="0.484375" stop-color="#2FDFCA"/>
<stop offset="0.492187" stop-color="#2FDECB"/>
<stop offset="0.5" stop-color="#2FDECC"/>
<stop offset="0.507813" stop-color="#2EDECD"/>
<stop offset="0.515625" stop-color="#2EDECD"/>
<stop offset="0.523438" stop-color="#2EDECE"/>
<stop offset="0.53125" stop-color="#2DDECF"/>
<stop offset="0.539062" stop-color="#2DDED0"/>
<stop offset="0.546875" stop-color="#2DDED1"/>
<stop offset="0.554688" stop-color="#2CDED2"/>
<stop offset="0.5625" stop-color="#2CDED3"/>
<stop offset="0.570312" stop-color="#2CDED3"/>
<stop offset="0.578125" stop-color="#2CDED4"/>
<stop offset="0.585937" stop-color="#2BDED5"/>
<stop offset="0.59375" stop-color="#2BDED6"/>
<stop offset="0.601563" stop-color="#2BDDD7"/>
<stop offset="0.609375" stop-color="#2ADDD8"/>
<stop offset="0.617188" stop-color="#2ADDD9"/>
<stop offset="0.625" stop-color="#2ADDD9"/>
<stop offset="0.632813" stop-color="#29DDDA"/>
<stop offset="0.640625" stop-color="#29DDDB"/>
<stop offset="0.648438" stop-color="#29DDDC"/>
<stop offset="0.65625" stop-color="#28DDDD"/>
<stop offset="0.664062" stop-color="#28DDDE"/>
<stop offset="0.671875" stop-color="#28DDDF"/>
<stop offset="0.679688" stop-color="#27DDDF"/>
<stop offset="0.6875" stop-color="#27DDE0"/>
<stop offset="0.695313" stop-color="#27DDE1"/>
<stop offset="0.703125" stop-color="#27DCE2"/>
<stop offset="0.710938" stop-color="#26DCE3"/>
<stop offset="0.71875" stop-color="#26DCE4"/>
<stop offset="0.726563" stop-color="#26DCE5"/>
<stop offset="0.734375" stop-color="#25DCE5"/>
<stop offset="0.742188" stop-color="#25DCE6"/>
<stop offset="0.75" stop-color="#25DCE7"/>
<stop offset="0.757812" stop-color="#24DCE8"/>
<stop offset="0.765625" stop-color="#24DCE9"/>
<stop offset="0.773438" stop-color="#24DCEA"/>
<stop offset="0.78125" stop-color="#23DCEB"/>
<stop offset="0.789062" stop-color="#23DCEB"/>
<stop offset="0.796875" stop-color="#23DCEC"/>
<stop offset="0.804688" stop-color="#23DCED"/>
<stop offset="0.8125" stop-color="#22DBEE"/>
<stop offset="0.820313" stop-color="#22DBEF"/>
<stop offset="0.828125" stop-color="#22DBF0"/>
<stop offset="0.835938" stop-color="#21DBF1"/>
<stop offset="0.84375" stop-color="#21DBF1"/>
<stop offset="0.851563" stop-color="#21DBF2"/>
<stop offset="0.859375" stop-color="#20DBF3"/>
<stop offset="0.867188" stop-color="#20DBF4"/>
<stop offset="0.875" stop-color="#20DBF5"/>
<stop offset="0.882812" stop-color="#1FDBF6"/>
<stop offset="0.890625" stop-color="#1FDBF7"/>
<stop offset="0.898438" stop-color="#1FDBF7"/>
<stop offset="0.90625" stop-color="#1EDBF8"/>
<stop offset="0.914062" stop-color="#1EDBF9"/>
<stop offset="0.921875" stop-color="#1EDAFA"/>
<stop offset="0.929687" stop-color="#1EDAFB"/>
<stop offset="0.9375" stop-color="#1DDAFC"/>
<stop offset="0.945313" stop-color="#1DDAFD"/>
<stop offset="0.953125" stop-color="#1DDAFD"/>
<stop offset="0.960938" stop-color="#1CDAFE"/>
<stop offset="0.96875" stop-color="#1CDAFF"/>
<stop offset="1" stop-color="#1CDAFF"/>
</linearGradient>
<linearGradient id="paint3_linear_1106_5" x1="88.2674" y1="22.9336" x2="88.2674" y2="98.2973" gradientUnits="userSpaceOnUse">
<stop stop-color="#42E396"/>
<stop offset="0.0078125" stop-color="#42E396"/>
<stop offset="0.015625" stop-color="#42E397"/>
<stop offset="0.0234375" stop-color="#42E397"/>
<stop offset="0.03125" stop-color="#41E398"/>
<stop offset="0.0390625" stop-color="#41E399"/>
<stop offset="0.046875" stop-color="#41E39A"/>
<stop offset="0.0546875" stop-color="#40E39B"/>
<stop offset="0.0625" stop-color="#40E29C"/>
<stop offset="0.0703125" stop-color="#40E29D"/>
<stop offset="0.078125" stop-color="#3FE29D"/>
<stop offset="0.0859375" stop-color="#3FE29E"/>
<stop offset="0.09375" stop-color="#3FE29F"/>
<stop offset="0.101562" stop-color="#3EE2A0"/>
<stop offset="0.109375" stop-color="#3EE2A1"/>
<stop offset="0.117188" stop-color="#3EE2A2"/>
<stop offset="0.125" stop-color="#3DE2A3"/>
<stop offset="0.132812" stop-color="#3DE2A3"/>
<stop offset="0.140625" stop-color="#3DE2A4"/>
<stop offset="0.148437" stop-color="#3DE2A5"/>
<stop offset="0.15625" stop-color="#3CE2A6"/>
<stop offset="0.164062" stop-color="#3CE2A7"/>
<stop offset="0.171875" stop-color="#3CE1A8"/>
<stop offset="0.179687" stop-color="#3BE1A9"/>
<stop offset="0.1875" stop-color="#3BE1A9"/>
<stop offset="0.195312" stop-color="#3BE1AA"/>
<stop offset="0.203125" stop-color="#3AE1AB"/>
<stop offset="0.210937" stop-color="#3AE1AC"/>
<stop offset="0.21875" stop-color="#3AE1AD"/>
<stop offset="0.226562" stop-color="#39E1AE"/>
<stop offset="0.234375" stop-color="#39E1AF"/>
<stop offset="0.242187" stop-color="#39E1AF"/>
<stop offset="0.25" stop-color="#39E1B0"/>
<stop offset="0.257812" stop-color="#38E1B1"/>
<stop offset="0.265625" stop-color="#38E1B2"/>
<stop offset="0.273437" stop-color="#38E0B3"/>
<stop offset="0.28125" stop-color="#37E0B4"/>
<stop offset="0.289063" stop-color="#37E0B5"/>
<stop offset="0.296875" stop-color="#37E0B5"/>
<stop offset="0.304688" stop-color="#36E0B6"/>
<stop offset="0.3125" stop-color="#36E0B7"/>
<stop offset="0.320312" stop-color="#36E0B8"/>
<stop offset="0.328125" stop-color="#35E0B9"/>
<stop offset="0.335937" stop-color="#35E0BA"/>
<stop offset="0.34375" stop-color="#35E0BB"/>
<stop offset="0.351562" stop-color="#34E0BB"/>
<stop offset="0.359375" stop-color="#34E0BC"/>
<stop offset="0.367188" stop-color="#34E0BD"/>
<stop offset="0.375" stop-color="#34E0BE"/>
<stop offset="0.382812" stop-color="#33DFBF"/>
<stop offset="0.390625" stop-color="#33DFC0"/>
<stop offset="0.398437" stop-color="#33DFC1"/>
<stop offset="0.40625" stop-color="#32DFC1"/>
<stop offset="0.414062" stop-color="#32DFC2"/>
<stop offset="0.421875" stop-color="#32DFC3"/>
<stop offset="0.429688" stop-color="#31DFC4"/>
<stop offset="0.4375" stop-color="#31DFC5"/>
<stop offset="0.445312" stop-color="#31DFC6"/>
<stop offset="0.453125" stop-color="#30DFC7"/>
<stop offset="0.460937" stop-color="#30DFC7"/>
<stop offset="0.46875" stop-color="#30DFC8"/>
<stop offset="0.476562" stop-color="#30DFC9"/>
<stop offset="0.484375" stop-color="#2FDFCA"/>
<stop offset="0.492187" stop-color="#2FDECB"/>
<stop offset="0.5" stop-color="#2FDECC"/>
<stop offset="0.507813" stop-color="#2EDECD"/>
<stop offset="0.515625" stop-color="#2EDECD"/>
<stop offset="0.523438" stop-color="#2EDECE"/>
<stop offset="0.53125" stop-color="#2DDECF"/>
<stop offset="0.539062" stop-color="#2DDED0"/>
<stop offset="0.546875" stop-color="#2DDED1"/>
<stop offset="0.554688" stop-color="#2CDED2"/>
<stop offset="0.5625" stop-color="#2CDED3"/>
<stop offset="0.570312" stop-color="#2CDED3"/>
<stop offset="0.578125" stop-color="#2CDED4"/>
<stop offset="0.585937" stop-color="#2BDED5"/>
<stop offset="0.59375" stop-color="#2BDED6"/>
<stop offset="0.601563" stop-color="#2BDDD7"/>
<stop offset="0.609375" stop-color="#2ADDD8"/>
<stop offset="0.617188" stop-color="#2ADDD9"/>
<stop offset="0.625" stop-color="#2ADDD9"/>
<stop offset="0.632813" stop-color="#29DDDA"/>
<stop offset="0.640625" stop-color="#29DDDB"/>
<stop offset="0.648438" stop-color="#29DDDC"/>
<stop offset="0.65625" stop-color="#28DDDD"/>
<stop offset="0.664062" stop-color="#28DDDE"/>
<stop offset="0.671875" stop-color="#28DDDF"/>
<stop offset="0.679688" stop-color="#27DDDF"/>
<stop offset="0.6875" stop-color="#27DDE0"/>
<stop offset="0.695313" stop-color="#27DDE1"/>
<stop offset="0.703125" stop-color="#27DCE2"/>
<stop offset="0.710938" stop-color="#26DCE3"/>
<stop offset="0.71875" stop-color="#26DCE4"/>
<stop offset="0.726563" stop-color="#26DCE5"/>
<stop offset="0.734375" stop-color="#25DCE5"/>
<stop offset="0.742188" stop-color="#25DCE6"/>
<stop offset="0.75" stop-color="#25DCE7"/>
<stop offset="0.757812" stop-color="#24DCE8"/>
<stop offset="0.765625" stop-color="#24DCE9"/>
<stop offset="0.773438" stop-color="#24DCEA"/>
<stop offset="0.78125" stop-color="#23DCEB"/>
<stop offset="0.789062" stop-color="#23DCEB"/>
<stop offset="0.796875" stop-color="#23DCEC"/>
<stop offset="0.804688" stop-color="#23DCED"/>
<stop offset="0.8125" stop-color="#22DBEE"/>
<stop offset="0.820313" stop-color="#22DBEF"/>
<stop offset="0.828125" stop-color="#22DBF0"/>
<stop offset="0.835938" stop-color="#21DBF1"/>
<stop offset="0.84375" stop-color="#21DBF1"/>
<stop offset="0.851563" stop-color="#21DBF2"/>
<stop offset="0.859375" stop-color="#20DBF3"/>
<stop offset="0.867188" stop-color="#20DBF4"/>
<stop offset="0.875" stop-color="#20DBF5"/>
<stop offset="0.882812" stop-color="#1FDBF6"/>
<stop offset="0.890625" stop-color="#1FDBF7"/>
<stop offset="0.898438" stop-color="#1FDBF7"/>
<stop offset="0.90625" stop-color="#1EDBF8"/>
<stop offset="0.914062" stop-color="#1EDBF9"/>
<stop offset="0.921875" stop-color="#1EDAFA"/>
<stop offset="0.929687" stop-color="#1EDAFB"/>
<stop offset="0.9375" stop-color="#1DDAFC"/>
<stop offset="0.945313" stop-color="#1DDAFD"/>
<stop offset="0.953125" stop-color="#1DDAFD"/>
<stop offset="0.960938" stop-color="#1CDAFE"/>
<stop offset="0.96875" stop-color="#1CDAFF"/>
<stop offset="1" stop-color="#1CDAFF"/>
</linearGradient>
<linearGradient id="paint4_linear_1106_5" x1="64.4575" y1="63.9467" x2="64.4575" y2="57.2844" gradientUnits="userSpaceOnUse">
<stop stop-color="#42E396"/>
<stop offset="0.0078125" stop-color="#42E396"/>
<stop offset="0.015625" stop-color="#42E397"/>
<stop offset="0.0234375" stop-color="#42E397"/>
<stop offset="0.03125" stop-color="#41E398"/>
<stop offset="0.0390625" stop-color="#41E399"/>
<stop offset="0.046875" stop-color="#41E39A"/>
<stop offset="0.0546875" stop-color="#40E39B"/>
<stop offset="0.0625" stop-color="#40E29C"/>
<stop offset="0.0703125" stop-color="#40E29D"/>
<stop offset="0.078125" stop-color="#3FE29D"/>
<stop offset="0.0859375" stop-color="#3FE29E"/>
<stop offset="0.09375" stop-color="#3FE29F"/>
<stop offset="0.101562" stop-color="#3EE2A0"/>
<stop offset="0.109375" stop-color="#3EE2A1"/>
<stop offset="0.117187" stop-color="#3EE2A2"/>
<stop offset="0.125" stop-color="#3DE2A3"/>
<stop offset="0.132812" stop-color="#3DE2A3"/>
<stop offset="0.140625" stop-color="#3DE2A4"/>
<stop offset="0.148437" stop-color="#3DE2A5"/>
<stop offset="0.15625" stop-color="#3CE2A6"/>
<stop offset="0.164062" stop-color="#3CE2A7"/>
<stop offset="0.171875" stop-color="#3CE1A8"/>
<stop offset="0.179687" stop-color="#3BE1A9"/>
<stop offset="0.1875" stop-color="#3BE1A9"/>
<stop offset="0.195312" stop-color="#3BE1AA"/>
<stop offset="0.203125" stop-color="#3AE1AB"/>
<stop offset="0.210937" stop-color="#3AE1AC"/>
<stop offset="0.21875" stop-color="#3AE1AD"/>
<stop offset="0.226562" stop-color="#39E1AE"/>
<stop offset="0.234375" stop-color="#39E1AF"/>
<stop offset="0.242187" stop-color="#39E1AF"/>
<stop offset="0.25" stop-color="#39E1B0"/>
<stop offset="0.257812" stop-color="#38E1B1"/>
<stop offset="0.265625" stop-color="#38E1B2"/>
<stop offset="0.273438" stop-color="#38E0B3"/>
<stop offset="0.28125" stop-color="#37E0B4"/>
<stop offset="0.289062" stop-color="#37E0B5"/>
<stop offset="0.296875" stop-color="#37E0B5"/>
<stop offset="0.304687" stop-color="#36E0B6"/>
<stop offset="0.3125" stop-color="#36E0B7"/>
<stop offset="0.320312" stop-color="#36E0B8"/>
<stop offset="0.328125" stop-color="#35E0B9"/>
<stop offset="0.335937" stop-color="#35E0BA"/>
<stop offset="0.34375" stop-color="#35E0BB"/>
<stop offset="0.351562" stop-color="#34E0BB"/>
<stop offset="0.359375" stop-color="#34E0BC"/>
<stop offset="0.367188" stop-color="#34E0BD"/>
<stop offset="0.375" stop-color="#34E0BE"/>
<stop offset="0.382812" stop-color="#33DFBF"/>
<stop offset="0.390625" stop-color="#33DFC0"/>
<stop offset="0.398437" stop-color="#33DFC1"/>
<stop offset="0.40625" stop-color="#32DFC1"/>
<stop offset="0.414062" stop-color="#32DFC2"/>
<stop offset="0.421875" stop-color="#32DFC3"/>
<stop offset="0.429687" stop-color="#31DFC4"/>
<stop offset="0.4375" stop-color="#31DFC5"/>
<stop offset="0.445312" stop-color="#31DFC6"/>
<stop offset="0.453125" stop-color="#30DFC7"/>
<stop offset="0.460937" stop-color="#30DFC7"/>
<stop offset="0.46875" stop-color="#30DFC8"/>
<stop offset="0.476562" stop-color="#30DFC9"/>
<stop offset="0.484375" stop-color="#2FDFCA"/>
<stop offset="0.492187" stop-color="#2FDECB"/>
<stop offset="0.5" stop-color="#2FDECC"/>
<stop offset="0.507812" stop-color="#2EDECD"/>
<stop offset="0.515625" stop-color="#2EDECD"/>
<stop offset="0.523438" stop-color="#2EDECE"/>
<stop offset="0.53125" stop-color="#2DDECF"/>
<stop offset="0.539063" stop-color="#2DDED0"/>
<stop offset="0.546875" stop-color="#2DDED1"/>
<stop offset="0.554688" stop-color="#2CDED2"/>
<stop offset="0.5625" stop-color="#2CDED3"/>
<stop offset="0.570312" stop-color="#2CDED3"/>
<stop offset="0.578125" stop-color="#2CDED4"/>
<stop offset="0.585938" stop-color="#2BDED5"/>
<stop offset="0.59375" stop-color="#2BDED6"/>
<stop offset="0.601562" stop-color="#2BDDD7"/>
<stop offset="0.609375" stop-color="#2ADDD8"/>
<stop offset="0.617188" stop-color="#2ADDD9"/>
<stop offset="0.625" stop-color="#2ADDD9"/>
<stop offset="0.632813" stop-color="#29DDDA"/>
<stop offset="0.640625" stop-color="#29DDDB"/>
<stop offset="0.648438" stop-color="#29DDDC"/>
<stop offset="0.65625" stop-color="#28DDDD"/>
<stop offset="0.664062" stop-color="#28DDDE"/>
<stop offset="0.671875" stop-color="#28DDDF"/>
<stop offset="0.679688" stop-color="#27DDDF"/>
<stop offset="0.6875" stop-color="#27DDE0"/>
<stop offset="0.695312" stop-color="#27DDE1"/>
<stop offset="0.703125" stop-color="#27DCE2"/>
<stop offset="0.710938" stop-color="#26DCE3"/>
<stop offset="0.71875" stop-color="#26DCE4"/>
<stop offset="0.726563" stop-color="#26DCE5"/>
<stop offset="0.734375" stop-color="#25DCE5"/>
<stop offset="0.742188" stop-color="#25DCE6"/>
<stop offset="0.75" stop-color="#25DCE7"/>
<stop offset="0.757812" stop-color="#24DCE8"/>
<stop offset="0.765625" stop-color="#24DCE9"/>
<stop offset="0.773437" stop-color="#24DCEA"/>
<stop offset="0.78125" stop-color="#23DCEB"/>
<stop offset="0.789062" stop-color="#23DCEB"/>
<stop offset="0.796875" stop-color="#23DCEC"/>
<stop offset="0.804688" stop-color="#23DCED"/>
<stop offset="0.8125" stop-color="#22DBEE"/>
<stop offset="0.820312" stop-color="#22DBEF"/>
<stop offset="0.828125" stop-color="#22DBF0"/>
<stop offset="0.835938" stop-color="#21DBF1"/>
<stop offset="0.84375" stop-color="#21DBF1"/>
<stop offset="0.851562" stop-color="#21DBF2"/>
<stop offset="0.859375" stop-color="#20DBF3"/>
<stop offset="0.867187" stop-color="#20DBF4"/>
<stop offset="0.875" stop-color="#20DBF5"/>
<stop offset="0.882812" stop-color="#1FDBF6"/>
<stop offset="0.890625" stop-color="#1FDBF7"/>
<stop offset="0.898438" stop-color="#1FDBF7"/>
<stop offset="0.90625" stop-color="#1EDBF8"/>
<stop offset="0.914062" stop-color="#1EDBF9"/>
<stop offset="0.921875" stop-color="#1EDAFA"/>
<stop offset="0.929688" stop-color="#1EDAFB"/>
<stop offset="0.9375" stop-color="#1DDAFC"/>
<stop offset="0.945312" stop-color="#1DDAFD"/>
<stop offset="0.953125" stop-color="#1DDAFD"/>
<stop offset="0.960937" stop-color="#1CDAFE"/>
<stop offset="0.96875" stop-color="#1CDAFF"/>
<stop offset="1" stop-color="#1CDAFF"/>
</linearGradient>
</defs>
</svg>
